<?xml version="1.0" encoding="UTF-8"?>
<svg id="Layer_2" data-name="Layer 2" xmlns="http://www.w3.org/2000/svg" viewBox="0 0 620.75 210.7">
  <defs>
    <style>
      .cls-1 {
        fill: #fff;
        stroke-width: 0px;
      }
    </style>
  </defs>
  <g id="Layer_1-2" data-name="Layer 1">
    <g>
      <path class="cls-1" d="M453.32,69.88c.06.06.13.12.2.17.66,1.22,1.53,2.23,2.83,2.81h0c-.09.71.37,1.15.76,1.64,3.08,3.97,5.2,8.46,6.15,13.33,1.14,5.82,1.09,11.6-1.24,17.33-1.8,4.42-3.95,8.45-7.5,11.67-5.3,4.82-11.74,7.48-18.51,9.28-6.47,1.72-13.15,2.47-19.84,2.49-23.08.09-46.16.04-69.24.09-1.54,0-1.96-.58-1.96-2.04.03-39.96.03-79.92.04-119.88,0-.31,0-.63-.01-.94-.12-2.06.01-2.21,2.1-2.21,20.05,0,40.1,0,60.15,0,11.29,0,22.38.99,32.81,5.92,3.55,1.68,6.66,3.95,9.44,6.57,4.25,4.01,6.61,9.19,7.56,14.93.99,6.01.23,11.83-2.36,17.38-1.52,3.27-3.35,6.34-5.83,8.99-1.77,1.89-4.07,3.06-6.13,4.56-.55.4-.92.86-.89,1.54.02.58.51.71.96.88,2.48.94,4.77,2.24,7.02,3.65,1.1.69,1.94,1.99,3.5,1.82ZM397.8,103.37v-.04c4.07,0,8.14.01,12.21,0,3.4-.01,6.8-.23,10.03-1.4,5.26-1.91,8.13-5.36,8.31-10.89.18-5.51-2.58-9.76-7.5-11.6-4.23-1.58-8.64-1.84-13.09-1.84-8.4,0-16.8.02-25.2,0-2.92,0-2.89-.04-2.89,2.93,0,6.93,0,13.86-.05,20.79-.01,1.64.28,2.05,1.91,2.05,5.43,0,10.85,0,16.28,0ZM395.74,28.94c-4.64,0-8.4.02-12.16,0-4.22-.02-4-.51-3.97,3.9.04,6,0,12-.03,17.99,0,1.23.04,2.32,1.75,2.31,8.3-.06,16.6-.05,24.9-.13,2.94-.03,5.81-.61,8.57-1.64,6.55-2.44,9.27-10.2,5.64-16.15-2.2-3.6-5.76-4.98-9.65-5.71-5.28-.98-10.62-.42-15.05-.57Z"/>
      <path class="cls-1" d="M485.59,99.4c-.15-.28-.3-.56-.44-.84-.07-.3-.08-.62-.21-.89-2.98-5.83-5.16-11.94-6.28-18.4-.06-.36-.12-.73-.56-.85-.02-.18-.04-.36-.06-.53.45-.54.37-.99-.24-1.35-.02-.18-.03-.35-.05-.53.54-1.67-.25-3.32-.09-4.99.04-.48.1-1.05-.45-1.37,0-2.32,0-4.65,0-6.97.78-2.07.75-4.21.54-6.37.04-.27.08-.54.12-.82.93-1.27,1.05-2.7.8-4.19.06-.27.11-.54.17-.81,1.15-2.69,1.93-5.48,2.46-8.35.2-.46.39-.92.59-1.37.6-.2.62-.8.81-1.26,1.88-4.49,4.25-8.71,7.15-12.62,4.76-6.39,10.65-11.53,17.41-15.76,7.73-4.84,16.2-7.71,25.08-9.3,8.52-1.53,17.14-1.6,25.73-.33,10.87,1.61,21.12,4.77,29.93,11.69,3.46,2.71,6.81,5.51,9.76,8.76,2.15,2.37,2.03,2.44-.31,4.53-6.25,5.58-12.47,11.21-18.68,16.85-.74.67-1.14.7-1.88-.09-3.28-3.49-6.76-6.76-10.97-9.16-7.52-4.28-15.59-5.32-24.04-4.15-8.58,1.18-15.66,5.09-21.23,11.72-3.16,3.75-5.27,7.93-6.47,12.77-2.23,9.04-2.29,17.81,1.06,26.63,2.27,6,5.98,10.74,10.81,14.84,3.6,3.06,7.75,5.03,12.18,6.06,4.17.97,8.55,1.17,12.91.9,4.46-.28,8.68-1.39,12.69-3.27,4.89-2.3,8.82-5.87,12.41-9.83,1.23-1.35,1.74-1.38,3.06-.16,2.37,2.2,4.73,4.4,7.14,6.56,4.07,3.66,8.15,7.3,12.25,10.92.99.88.99,1.52.11,2.58-1.34,1.62-2.94,2.96-4.39,4.45-4.65,4.78-10.2,8.29-16.24,10.96-6.84,3.03-14,5.02-21.51,5.73-10.36.99-20.57.78-30.72-1.93-7.12-1.91-13.87-4.55-20.02-8.61-7.76-5.13-14.3-11.47-19.09-19.52-.3-.51-.53-1.16-1.24-1.31Z"/>
      <path class="cls-1" d="M150.51,89.75c0,7.93-.03,15.86.02,23.79.01,1.91-.64,3.2-2.27,4.26-6.1,3.98-12.59,7.13-19.51,9.41-5.31,1.75-10.7,3.26-16.22,4.06-8.99,1.31-18.01,1.63-27.05.2-5.2-.82-10.35-1.81-15.31-3.58-5.61-2-10.83-4.74-15.67-8.24-3.47-2.51-6.73-5.23-9.66-8.38-6.59-7.08-11.27-15.26-14.28-24.43-1.52-4.63-2.3-9.41-2.57-14.23-.31-5.56-.52-11.16.5-16.7.59-3.22.9-6.54,1.92-9.62,1.77-5.37,3.86-10.64,6.94-15.46,3.77-5.9,8.43-10.98,13.83-15.39,5.04-4.11,10.6-7.33,16.61-9.87,4.74-2,9.67-3.31,14.67-4.27,2.73-.53,5.5-1.2,8.33-1.21,3.08,0,6.16,0,9.24-.07,5.5-.12,10.86.77,16.26,1.75,6.18,1.12,11.92,3.32,17.53,5.99,3.64,1.73,6.92,4.03,10.13,6.45,3.09,2.33,5.73,5.11,8.4,7.87,1.09,1.13,1,1.69-.14,2.72-2.52,2.26-4.99,4.57-7.51,6.83-2.4,2.15-4.77,4.34-7.17,6.49-1.93,1.73-3.89,3.43-5.82,5.17-1.4,1.26-1.89,1.28-3.24-.09-2.56-2.6-5.24-5.04-8.4-6.94-4.57-2.74-9.5-4.55-14.74-5.29-3.86-.55-7.83-.53-11.7.04-4.27.63-8.31,1.94-12.2,4.01-5.22,2.79-9.15,6.71-11.96,11.76-3.95,7.09-5.09,14.8-4.52,22.82.36,5.1,1.55,9.96,3.91,14.53,3.59,6.95,8.96,12.06,16.17,14.97,6.48,2.62,13.29,3.35,20.27,2.34,3.84-.56,7.49-1.72,11.14-2.92,1.2-.39,1.61-1.17,1.6-2.49-.09-10.38-.09-20.76-.14-31.14,0-1.43.54-2.04,2.05-2.03,9.35.05,18.69.01,28.04.02,1.93,0,2.5.65,2.5,2.74,0,8.03,0,16.07,0,24.1ZM149.55,90.1s0,0,0,0c0-8.24-.01-16.48.01-24.72,0-1.49-.83-1.66-2.03-1.66-8.77.03-17.54.01-26.31.01-2.3,0-2.46.2-2.45,2.5.03,10.12.02,20.24.04,30.35,0,.99-.15,1.9-1.1,2.42-2.6,1.43-5.41,2.58-8.26,3.03-4.3.66-8.69,1.22-13.08.76-3.66-.38-7.31-.76-10.8-2.14-5.88-2.33-10.7-6.01-14.51-10.99-3.03-3.95-5.46-8.26-6.38-13.22-.92-4.99-1.09-10.06-.66-15.11.28-3.24.48-6.54,1.79-9.62,1.95-4.59,4.38-8.82,8.01-12.37,4.43-4.33,9.61-7.32,15.58-8.72,5.14-1.21,10.41-1.56,15.71-.83,4.75.66,9.27,1.97,13.47,4.32,3.95,2.21,7.39,5.06,10.49,8.33.85.9,1.45.83,2.33,0,2.24-2.11,4.6-4.09,6.87-6.16,4.12-3.76,8.23-7.54,12.29-11.36,1.47-1.38,1.39-1.75.07-3.21-8-8.85-17.97-14.51-29.32-17.72-8.52-2.41-17.29-3.47-26.16-3.12-3.85.15-7.76.3-11.49,1.23-3.64.91-7.31,1.78-10.92,2.88-9.31,2.84-17.32,7.79-24.49,14.17-4.56,4.05-8.27,8.84-11.15,14.26-3.23,6.08-5.64,12.44-7,19.21-1.19,5.92-1.46,11.9-1.16,17.9.24,4.68.98,9.3,2.27,13.83.94,3.29,2.13,6.48,3.39,9.67,1.81,4.57,4.41,8.63,7.36,12.43,3.44,4.43,7.49,8.31,12.08,11.62,4.02,2.9,8.27,5.32,12.78,7.34,2.61,1.17,5.38,1.82,8.05,2.76,3.21,1.13,6.51,1.89,9.83,2.35,5.26.73,10.58.94,15.91.8,8.82-.22,17.35-1.96,25.76-4.45,3.59-1.06,7.06-2.47,10.48-4,4.1-1.83,7.86-4.23,11.64-6.61.7-.44,1.06-1,1.06-1.92-.04-8.08-.02-16.17-.02-24.25Z"/>
      <path class="cls-1" d="M320.09,66.11c0,20.13,0,40.26,0,60.4,0,2.64-.21,2.87-2.83,2.87-9.4,0-18.79,0-28.19,0-2.2,0-2.54-.35-2.55-2.54-.04-14.24,0-28.48-.15-42.72-.06-5.21-.1-10.43-.18-15.64-.01-.83.12-1.66.17-2.5.02-.35.12-.81-.28-.99-.5-.22-.79.24-.98.57-1.02,1.75-1.97,3.54-3.01,5.28-3.68,6.18-7.53,12.26-11.03,18.54-3.96,7.11-8.25,14.01-12.38,21.01-1.11,1.88-2.27,3.74-3.36,5.64-.53.92-1.27,1.28-2.31,1.28-4.33-.03-8.67-.03-13,0-1.24.01-2.08-.5-2.68-1.54-6.52-11.34-13.53-22.39-20.39-33.53-2.76-4.48-5.26-9.11-8.24-13.45-.17-.25-.25-.57-.38-.85-.22-.5-.28-1.3-1.02-1.12-.6.15-.39.88-.39,1.38.02,18.67.05,37.34.08,56.02,0,.99.02,1.98.01,2.97,0,1.87-.4,2.28-2.32,2.28-6.53,0-13.05,0-19.58,0-3.24,0-6.47.02-9.71.03-1.67,0-2.15-.47-2.2-2.12-.02-.73,0-1.46,0-2.19,0-40.01-.01-80.01-.02-120.02,0-1.78.54-2.37,2.31-2.37,8.61,0,17.23,0,25.84,0,1.05,0,1.82.28,2.53,1.19,2.56,3.27,4.32,7.02,6.51,10.52,3.82,6.11,7.49,12.31,11.26,18.45,3.14,5.12,6.25,10.24,9.27,15.42,3.15,5.41,6.65,10.62,9.88,15.98,1.73,2.87,3.67,5.63,5.08,8.68.21.45.33,1.07.98,1.1.68.03.95-.5,1.24-1.01,1.44-2.57,2.84-5.16,4.35-7.69,3.18-5.32,6.46-10.58,9.64-15.91,3.55-5.96,6.91-12.04,10.59-17.93,2.31-3.7,4.08-7.72,6.56-11.3,2.59-3.73,4.62-7.8,7.12-11.57.98-1.48,1.2-3.31,2.51-4.63.76-.77,1.53-1.18,2.59-1.18,8.67.01,17.33,0,26,.02,1.89,0,2.32.44,2.32,2.13,0,20.34,0,40.68,0,61.03.11,0,.22,0,.33,0ZM174.21,65.99c0,13.4,0,26.81,0,40.21,0,6.83,0,13.67-.02,20.5,0,1.2.21,1.99,1.7,1.98,9.45-.04,18.9-.04,28.35-.01,1.38,0,1.94-.43,1.94-1.9-.04-18.62-.04-37.24-.04-55.86,0-1.46.09-2.92-.19-4.37-.11-.56-.15-1.24.51-1.5.68-.28,1.19.17,1.61.67.16.2.27.45.39.68,2.23,4.42,5.02,8.52,7.58,12.75,3.29,5.44,6.66,10.83,9.97,16.25,3.99,6.53,7.97,13.08,11.96,19.62.49.8,1.17,1.27,2.18,1.26,4.28-.03,8.56-.03,12.84-.01.95,0,1.54-.41,2.01-1.21,3.12-5.3,6.27-10.57,9.4-15.86,5.45-9.19,10.89-18.38,16.33-27.57,1.48-2.51,2.94-5.04,4.44-7.54.31-.52.71-1.16,1.47-.87.73.27.65.97.61,1.61-.07,1.3-.15,2.6-.14,3.9.07,11.79.14,23.57.24,35.36.06,7.35-.09,14.71.18,22.06.09,2.5.05,2.53,1.76,2.53,9.34,0,18.69-.02,28.03.01,1.39,0,1.94-.42,1.92-1.9-.17-12.51-.11-25.03-.2-37.55-.19-25.71-.1-51.43-.13-77.14,0-2.14-.17-4.29.05-6.41.16-1.52-.31-2.01-1.71-2.01-8.56,0-17.12,0-25.68,0-1.12,0-1.83.49-2.37,1.46-5.43,9.8-11.44,19.26-17.08,28.95-4.71,8.11-9.55,16.14-14.32,24.22-3.18,5.38-6.33,10.78-9.49,16.18-.33.57-.68,1.06-1.42,1.06-.76,0-1.04-.54-1.33-1.13-.52-1.08-1.05-2.16-1.68-3.18-4.86-7.84-9.62-15.74-14.34-23.66-3.63-6.09-7.43-12.07-11.11-18.12-4.9-8.06-9.77-16.13-14.61-24.23-.67-1.13-1.49-1.57-2.79-1.56-8.2.04-16.39.02-24.59.03-2.26,0-2.34.09-2.23,2.39.03.52.01,1.04.01,1.56,0,19.46,0,38.91,0,58.37Z"/>
      <path class="cls-1" d="M397.31,175.95c1.35-.07,2.65-.15,3.95-.2.52-.02,1.12-.04,1.27.62.13.56-.3.91-.74,1.06-2.23.75-3.3,2.6-4.33,4.49-1.15,2.11-2.43,4.13-3.97,5.97-.68.82-.55,1.49.21,2.15,1.26,1.1,2.55,2.15,4.04,2.93,1.49.78,2.69.27,3.79-.83.55-.55,1.13-1.71,1.97-1.01.85.71-.02,1.6-.56,2.27-1.29,1.62-2.32,3.45-4.18,4.58-2.47,1.51-4.97,1.32-7.49.35-1.42-.55-2.66-1.48-3.66-2.62-.97-1.11-1.95-1.11-3-.29-3.88,3.01-8.29,3.93-13.1,3.56-3.78-.29-7.51-3.27-8.85-7.18-1.11-3.23.37-7.68,3.52-10.4,1.62-1.4,3.42-2.56,5.36-3.49,1.94-.93,2.13-1.49,1.35-3.43-2.81-6.94,2.72-14.59,10.21-14.24,2.53.12,4.84.46,6.69,2.44,2.31,2.47,2.44,5.53.3,8.19-1.63,2.03-3.84,3.16-6.08,4.27-1.63.81-1.64,1.04-.7,2.56,1.87,3.03,4.23,5.68,6.49,8.4.56.67,1.32,1.18,1.93.3,1.14-1.65,2.49-3.19,2.81-5.33.24-1.58.02-2.78-1.53-3.51-.52-.24-1.13-.56-.9-1.27.23-.71.93-.55,1.48-.53,1.25.04,2.5.13,3.71.19ZM384.79,171.77c1.94-2.27,1.31-6.98-1.2-8.98-1.69-1.34-3.46-.98-4.56.96-.42.74-.54,1.55-.57,2.4-.09,2.59,1.13,4.82,1.96,7.16.22.61.78.86,1.41.61.76-.3,1.6-.52,2.08-1.29.39-.19.71-.45.88-.86ZM370.35,184.15c.1,3.47,1.82,6.1,4.42,8.24,2.49,2.05,5.17,2.49,8.12.99,1.07-.54,1.26-1.17.42-2.05-3.21-3.37-6.05-7-8.1-11.21-.35-.72-1.02-1.23-1.78-.72-1.69,1.11-3.17,2.43-3.07,4.75Z"/>
      <path class="cls-1" d="M485.59,99.4c.72.14.94.79,1.24,1.31,4.79,8.05,11.33,14.39,19.09,19.52,6.15,4.07,12.89,6.7,20.02,8.61,10.14,2.71,20.36,2.92,30.72,1.93,7.52-.71,14.67-2.7,21.51-5.73,6.03-2.67,11.58-6.18,16.24-10.96,1.45-1.49,3.05-2.82,4.39-4.45.88-1.07.88-1.71-.11-2.58-4.1-3.62-8.18-7.26-12.25-10.92-2.4-2.16-4.77-4.36-7.14-6.56-1.32-1.23-1.84-1.19-3.06.16-3.59,3.96-7.52,7.53-12.41,9.83-4.01,1.89-8.23,2.99-12.69,3.27-4.36.27-8.74.07-12.91-.9-4.43-1.03-8.58-3.01-12.18-6.06-4.84-4.1-8.54-8.84-10.81-14.84-3.34-8.82-3.29-17.59-1.06-26.63,1.2-4.84,3.31-9.02,6.47-12.77,5.57-6.63,12.66-10.53,21.23-11.72,8.45-1.17,16.52-.13,24.04,4.15,4.21,2.4,7.69,5.67,10.97,9.16.74.79,1.14.76,1.88.09,6.21-5.64,12.42-11.26,18.68-16.85,2.34-2.09,2.46-2.16.31-4.53-2.95-3.25-6.3-6.05-9.76-8.76-8.82-6.92-19.06-10.08-29.93-11.69-8.59-1.27-17.21-1.2-25.73.33-8.88,1.6-17.35,4.47-25.08,9.3-6.75,4.23-12.65,9.37-17.41,15.76-2.91,3.9-5.27,8.12-7.15,12.62-.19.46-.21,1.05-.81,1.26-.36-1.54.63-2.68,1.2-3.93,3.01-6.53,6.91-12.45,12.18-17.41,6.19-5.82,13.02-10.66,20.97-13.82,4.05-1.61,8.21-2.76,12.46-3.79,8.39-2.03,16.85-1.99,25.33-1.61,3.37.15,6.75.77,10.09,1.59,2.72.67,5.49,1.19,8.13,2.13,7.91,2.82,15.13,6.82,21.32,12.58,2.1,1.96,4.15,3.94,6.04,6.11,1.42,1.64,1.4,1.91-.21,3.36-2.74,2.47-5.4,5.03-8.14,7.5-3.7,3.35-7.45,6.65-11.17,9.97-.27.24-.5.52-.75.79-.95,1.03-1.95,1.06-2.84.03-4.05-4.67-8.72-8.5-14.48-10.88-6.77-2.81-13.79-3.6-20.99-2.27-7.65,1.41-14.29,4.77-19.29,10.85-2.67,3.25-4.72,6.84-5.95,10.99-1.48,5-2.47,10-2.13,15.18.49,7.3,2.21,14.23,6.62,20.3,4.48,6.17,10.4,10.16,17.75,12.14,5.54,1.49,11.15,1.77,16.75.7,5.69-1.1,10.88-3.42,15.43-7.13,2.23-1.82,4.14-3.95,6.21-5.93,1.18-1.12,1.86-1.05,3.06.06,4,3.71,8.04,7.39,12.07,11.08,2.8,2.57,5.62,5.12,8.41,7.72.62.58,1.11,1.25.3,2.14-3.49,3.79-7.11,7.48-11.23,10.57-3.64,2.73-7.74,4.78-11.93,6.59-4.85,2.1-9.9,3.62-15.07,4.61-6.68,1.27-13.47,1.63-20.26,1.26-8.55-.46-16.82-2.26-24.77-5.45-10.11-4.06-18.71-10.2-25.68-18.6-1.94-2.33-3.66-4.81-5.26-7.37-.27-.43-.66-.84-.43-1.42Z"/>
      <path class="cls-1" d="M334.59,195.26c1.75.03,4.06-.22,6.31.44,2.63.77,4.62,2.97,4.82,5.21.3,3.36-1.28,5.68-4.08,7.31-1.09.63-2.25,1.13-3.5,1.31-4.94.71-9.87,1.06-14.6-1.06-1.49-.67-2.54-1.79-2.63-3.42-.08-1.54.91-2.6,2.26-3.29.9-.46,1.21-1.16.35-1.81-3.29-2.52-1.68-6.73,1.67-8.78,1.83-1.12,1.81-1.5-.03-2.51-5.38-2.97-5.82-10.25-.88-13.98,3.58-2.71,7.51-3.19,11.69-1.88,1.91.6,3.84.22,5.75.32.83.04,1.67-.02,2.5,0,.88.03,1.54.37,1.55,1.38,0,1-.51,1.52-1.52,1.61-2.65.23-2.65.24-1.54,2.72,1.72,3.82-.72,8.94-4.83,10.71-2.43,1.05-4.85,1.48-7.44,1.23-.41-.04-.84-.03-1.25.05-1.32.24-2.06,1.14-2.02,2.39.04,1.23.92,1.98,2.18,2.04,1.56.07,3.13.02,5.24.02ZM330.24,187.77c.28.84.88,1.09,1.71.93.21,0,.42,0,.63,0,.62.17,1.11.02,1.41-.58.18-.17.35-.34.53-.5.91-.5,1.2-1.39,1.35-2.31.42-2.59.21-5.19-.05-7.77-.09-.86-.45-1.7-1.31-2.16-.17-.16-.35-.32-.52-.48-.07-.36-.28-.49-.63-.4-.49-.06-.97-.11-1.46-.17-1.21-.2-1.9.66-2.29,1.48-1.37,2.94-1.5,6.02-.62,9.14.03.22.07.44.1.66-.2.92.14,1.58.99,1.98.05.06.1.13.16.19ZM333,201.77c-1.41,0-2.82-.08-4.22.02-1.44.1-3.02,1.39-3.1,2.48-.11,1.46.87,2.37,2.02,2.87,2.49,1.08,5.19,1.33,7.8.82,1.57-.3,3.32-.5,4.61-1.75,1.57-1.52,1.22-2.96-.8-3.79-2.07-.85-4.19-.64-6.31-.65Z"/>
      <path class="cls-1" d="M609.08,195.29c1.93.05,3.86-.2,5.78.18,3.04.6,5.37,2.6,5.78,5.02.52,3.09-1.04,6.18-3.9,7.71-1.67.89-3.44,1.51-5.34,1.64-3.6.25-7.19.39-10.74-.51-1.34-.34-2.56-.92-3.53-1.9-1.88-1.88-1.66-3.86.55-5.36q1.67-1.13.44-2.61c-2.16-2.58-1.59-5.56,1.52-7.9q2.22-1.67-.09-3.2c-4.9-3.25-4.93-10.19-.1-13.83,3.1-2.34,6.6-2.97,10.22-2.06,2.39.6,4.73.64,7.12.65.89,0,1.78-.02,2.66.04.84.06,1.34.51,1.3,1.43-.03.86-.46,1.33-1.31,1.49-.87.17-2.01-.53-2.59.52-.57,1.02.67,1.51.98,2.29,1.57,3.97-.95,8.94-5.14,10.77-2.57,1.12-5.12,1.2-7.79,1.1-1.46-.06-2.77,1.2-2.72,2.44.05,1.12,1.28,2.08,2.68,2.1.05,0,.1,0,.16,0,1.36,0,2.71,0,4.07,0ZM603.76,180.85c-.04,1.81-.02,3.27.29,4.71.38,1.82,1.59,3.03,3.04,3.14,1.5.11,2.75-.85,3.31-2.77.85-2.92.64-5.9-.02-8.81-.43-1.9-1.75-2.9-3.09-2.82-1.56.09-3.01,1.59-3.27,3.48-.15,1.13-.2,2.28-.26,3.07ZM607.8,201.75c-1.53.22-3.34-.42-5.04.37-1.07.5-2.13,1.09-2.06,2.46.07,1.35,1.04,2.1,2.18,2.61,2.36,1.07,4.91,1.19,7.36.81,1.73-.26,3.65-.49,5.01-1.94,1.29-1.37.92-2.79-.78-3.58-2.1-.98-4.29-.68-6.67-.74Z"/>
      <path class="cls-1" d="M160.09,173.87c.18-.16.35-.32.53-.48.3-.07.61-.09.89-.21,3.39-1.4,6.35-.78,8.93,1.84.46.46.8,1.09,1.5,1.29.06.08.11.17.17.26-.11.62.29,1.1.51,1.61,2.05,4.8,2.08,9.62.2,14.46-1.54,3.97-4.79,6.13-9.01,6.34-1.79.09-2.92-.89-4.16-1.81-.48-.35-1-.64-1.59-.37-.66.29-.56.92-.54,1.49.04,1.72.15,3.44.08,5.16-.09,2.34-.19,4.62,2.39,5.84.02,0,0,.1,0,.15-.07.07-.15.2-.22.2-3.7.01-7.4-.26-11.1.11-.27.03-.54-.05-.63-.34-.09-.29.09-.54.33-.64,2.09-.9,1.96-2.75,1.96-4.53.01-8.19,0-16.38,0-24.57,0-.88-.11-1.77-.15-2.65-.05-1.13-.52-2-1.57-2.52-.32-.16-.76-.3-.67-.75.09-.47.56-.38.91-.38,2.45,0,4.91.01,7.36.02.54,0,.97.13,1.29.68.89,1.57,1.54,1.5,2.61-.22ZM157.91,186.28s0,0,0,0c0,1.87.01,3.75,0,5.62-.02,2.27,2.41,5.01,4.56,5.14,1.42.09,2.88-1.78,3.29-4.23.02-.1.02-.21.04-.31.53-3.2.56-6.43.33-9.65-.13-1.8-.27-3.64-1.03-5.34-1.18-2.63-3.38-3.07-5.46-1.03-1.16,1.14-1.83,2.47-1.75,4.17.09,1.87.02,3.75.02,5.62Z"/>
      <path class="cls-1" d="M590.11,186.3c0,2.45,0,4.9,0,7.35,0,1.27.31,2.37,1.58,2.98.49.23.96.58.72,1.21-.24.65-.87.47-1.36.44-3.13-.19-6.26-.21-9.38,0-.52.03-1.11.13-1.37-.47-.25-.58.08-1.02.56-1.31,1.14-.69,1.34-1.8,1.34-2.98,0-4.75-.02-9.49-.06-14.24,0-.61-.08-1.27-.32-1.83-.61-1.44-2.05-1.79-3.17-.72-1.62,1.54-2.81,3.27-2.71,5.73.13,3.28.03,6.57.03,9.86,0,1.69.08,3.36,1.59,4.53.3.23.49.58.36.97-.17.52-.64.47-1.05.45-3.34-.14-6.68-.21-10.01.05-.37.03-.78.05-.96-.35-.2-.45,0-.89.37-1.1,1.97-1.1,1.86-2.94,1.85-4.79-.02-4.64-.03-9.28.02-13.92.02-1.52-.29-2.77-1.73-3.56-.38-.21-.92-.51-.7-1.07.2-.51.77-.44,1.24-.44,2.4,0,4.8.04,7.2.03,1,0,1.71.22,1.87,1.39.13,1,.73,1,1.44.47.84-.62,1.51-1.42,2.45-1.93,4.53-2.46,9.77.31,10.07,5.44.15,2.6.03,5.21.03,7.82.03,0,.07,0,.1,0Z"/>
      <path class="cls-1" d="M494.68,184.43c-.04,5.41-1.38,8.97-4.45,12-3.77,3.71-12.61,3.88-16.66-1.81-4.62-6.5-3.47-16.26,2.94-20.66,5.52-3.79,12.88-1.48,16.11,3.77,1.48,2.41,2.12,5.08,2.06,6.71ZM486.36,185.57s.09,0,.13,0c0-1.25,0-2.5,0-3.76,0-1.83-.05-3.66-.77-5.38-1.01-2.39-3.5-2.85-5.32-.99-.54.56-.77,1.24-.91,1.95-1.05,5.06-.59,10.18-.42,15.27.03.88.55,1.79.99,2.61.56,1.07,1.52,1.8,2.75,1.79,1.26-.01,2.1-.86,2.64-1.93.57-1.13.87-2.36.9-3.62.04-1.98.01-3.96.01-5.94Z"/>
      <path class="cls-1" d="M453.32,69.88c-1.56.17-2.4-1.13-3.5-1.82-2.25-1.41-4.54-2.71-7.02-3.65-.45-.17-.93-.31-.96-.88-.03-.68.34-1.14.89-1.54,2.06-1.5,4.36-2.67,6.13-4.56,2.48-2.65,4.31-5.72,5.83-8.99,2.59-5.55,3.35-11.37,2.36-17.38-.95-5.75-3.31-10.92-7.56-14.93-2.78-2.62-5.89-4.89-9.44-6.57-10.43-4.93-21.52-5.92-32.81-5.92-20.05,0-40.1,0-60.15,0-2.09,0-2.22.15-2.1,2.21.02.31.01.63.01.94,0,39.96,0,79.92-.04,119.88,0,1.46.42,2.05,1.96,2.04,23.08-.05,46.16,0,69.24-.09,6.69-.03,13.37-.78,19.84-2.49,6.76-1.8,13.2-4.46,18.51-9.28,3.55-3.23,5.7-7.25,7.5-11.67,2.33-5.72,2.38-11.51,1.24-17.33-.96-4.87-3.07-9.36-6.15-13.33-.38-.5-.85-.93-.76-1.64,1.81.85,2.6,2.63,3.57,4.17,4.27,6.78,5.45,14.31,4.5,22.09-1.15,9.39-5.97,16.66-13.98,21.73-7.52,4.76-15.92,6.82-24.65,7.88-4.32.53-8.64.63-12.97.63-22.08,0-44.17.01-66.25.02-2.07,0-2.48-.41-2.48-2.46,0-40.06,0-80.12.01-120.18,0-3.98,0-3.9,3.99-3.89,11.33.05,22.66,0,33.99.02,10.55.01,21.09-.06,31.64.12,9.54.16,18.83,1.83,27.41,6.19,7.2,3.66,12.77,8.99,15.5,16.83.79,2.27,1.35,4.58,1.44,7.02.22,5.52-.14,10.9-2.55,16.04-2.55,5.46-6.35,9.73-11.4,12.96-.43.27-1.07.38-1.1,1-.03.79.75.77,1.23.98,2.97,1.31,5.79,2.88,8.31,4.94.31.26.76.39.76.91Z"/>
      <path class="cls-1" d="M253.73,185.02c-.13,4.86-1.45,8.32-4.25,11.18-3.75,3.83-12.81,4.57-17.24-2.1-3.5-5.28-3.08-13.87,1.31-18.45,5.87-6.13,16.24-3.79,19.1,4.31.68,1.93,1.16,3.9,1.07,5.07ZM245.51,186.06c0-1.99.01-3.39,0-4.8-.02-1.41-.08-2.8-.54-4.16-.61-1.81-1.79-2.87-3.29-2.8-1.46.06-2.72,1.27-3.13,3.03-.4,1.68-.5,3.41-.52,5.12-.04,3.64-.37,7.3.34,10.91.43,2.22,1.97,3.79,3.43,3.76,1.44-.03,2.75-1.48,3.28-3.7.62-2.62.31-5.29.44-7.36Z"/>
      <path class="cls-1" d="M258.1,173.18c.5,0,.99-.01,1.49-.02,1.13.43,1.63-.2,1.58-1.16-.15-2.73.29-5.33,1.44-7.81.06-.06.11-.12.17-.17.83-.22,1.32-.77,1.54-1.57,0,0,0,0,0,0,.29-.09.61-.13.87-.27,3.63-1.93,7.29-2.23,11.01-.26.78.41,1.54.34,2.16-.27.97-.96,2.15-.97,3.35-.83,1.35.15,2.31.85,2.76,2.19.44,1.32.22,2.46-.86,3.38-.51.43-1.04.83-1.56,1.24-.78,0-1.57,0-2.35,0-.99-1.24-2.01-1.76-3.57-.7-1.06.72-2.4.69-3.57-.03-1.13-.7-1.11-1.73-.85-2.9.2-.92-.27-1.64-1.16-1.98-.84-.31-1.38.2-1.83.83-.54.75-.74,1.59-.74,2.51,0,1.88,0,3.76,0,5.63,0,2.21.05,2.28,2.22,2.43.75.05,1.58.07,1.57,1.09,0,1-.82,1.04-1.57,1.11-2.01.18-2.26.48-2.24,2.54.05,4.69.1,9.39.11,14.08,0,1.72.15,3.32,1.59,4.54.6.51.42.95-.37.96-3.03.03-6.06.03-9.08,0-.73,0-1.03-.43-.43-.97,1.87-1.71,1.77-3.95,1.6-6.12-.32-4.27-.19-8.54-.11-12.82.03-1.56-.48-2.18-2.12-2.2-.8-.01-1.4-.26-1.93-.81,0-.25,0-.49.01-.74.41-.19.65-.53.86-.91Z"/>
      <path class="cls-1" d="M302.69,174.82c.69-.62,1.29-1.35,2.18-1.72,1.04.35,1.87-.4,2.83-.54,1.69-.26,3.07.72,4.64.88,0,0,.11.1.11.1-.13.34.02.62.23.85,1.47,1.59,1.93,3.48,1.9,5.6-.05,4.43,0,8.86.02,13.29,0,1,.08,1.98.71,2.83.26.35.84.61.55,1.17-.26.51-.82.35-1.27.35-2.29,0-4.59-.04-6.88.03-1.2.04-1.67-.32-1.24-1.52l.02-.02c1.57-.38,1.3-1.78,1.31-2.78.05-4.83-.05-9.66-.1-14.49-.01-1.3-.57-2.32-1.66-3-.71-.44-1.46-.62-1.89.42-.09.05-.18.11-.26.16-1.58.53-3.47,3.21-3.48,5.08-.03,3.96,0,7.92,0,11.88,0,1.07.2,2.07.94,2.9.24.26.58.52.42.94-.2.49-.68.41-1.08.41-2.4.01-4.8-.04-7.2.03-1.23.03-1.46-.49-1.12-1.52,0,0,.02-.02.02-.02,1.11-.08,1.16-1.01,1.17-1.72.06-5.78.06-11.56.05-17.35,0-.6-.03-1.31-.91-1.39-.33-.31-.66-.62-.99-.93.01-.92.51-1.24,1.39-1.23,1.81.03,3.63.05,5.44,0,1.26-.03,2,.37,1.9,1.77-.03.4-.06.9.4,1.09.44.18.78-.19,1.09-.45.34-.28.84-.48.75-1.07Z"/>
      <path class="cls-1" d="M28.61,160.55c2.4,0,4.8,0,7.2,0,.77,0,1.7-.13,1.79,1,.08,1.04-.68,1.23-1.53,1.36-1.83.29-2.32,1.21-1.7,2.83,2.07,5.44,4.1,10.9,6.15,16.35.19.51.17,1.29.93,1.24.62-.04.6-.76.77-1.23,1.88-5.29,3.76-10.59,5.65-15.88.59-1.64.24-2.5-1.4-3.21-.38-.16-.78-.31-1.11-.55-.4-.29-.64-.7-.47-1.23.15-.46.54-.67.97-.65,2.61.12,5.21.14,7.82.05.5-.02.93.24,1.08.75.17.59-.1,1.1-.6,1.31-2.07.9-2.61,2.84-3.3,4.7-2.39,6.38-4.82,12.76-7.22,19.14-1.37,3.65-2.71,7.32-4.06,10.98-.3.81-.61,1.65-1.59,1.72-1.12.07-1.43-.86-1.75-1.7-2.22-5.9-4.44-11.79-6.65-17.69-.16-.44-.28-.9-.44-1.34-.18-.5-.02-1.3-.83-1.31-.63,0-.74.66-.93,1.13-2.56,6.2-5.12,12.41-7.67,18.61-.02.05-.03.1-.06.14-.57.74-.49,2.12-1.78,2.12-1.36,0-1.46-1.26-1.84-2.2-2.58-6.37-5.21-12.73-7.74-19.12-1.66-4.21-3.23-8.45-5.14-12.56-.49-1.06-1.05-2.03-2.25-2.47-.66-.24-1.01-.76-.86-1.48.16-.72.76-.78,1.36-.77,4.54.11,9.08.18,13.62-.04.61-.03,1.18.11,1.31.84.13.75-.31,1.14-.95,1.41-1.88.81-2.15,1.29-1.41,3.2,2.21,5.79,4.49,11.55,6.74,17.33.15.38.23.86.76.88.53.01.66-.45.79-.84,1.12-3.36,2.6-6.59,3.95-9.86.34-.81.31-1.62-.03-2.43-.64-1.54-1.29-3.08-1.89-4.63-.71-1.84-1.75-3.31-3.86-3.69-.62-.11-1.03-.54-.97-1.22.07-.82.68-.97,1.35-.97,2.61,0,5.22,0,7.83,0v-.02ZM47.16,161.85c-.03.64.39.8.72,1.04,1.02.73,1.32,1.72.94,2.89-.49,1.48-1.01,2.95-1.54,4.42-1.62,4.45-3.25,8.89-4.88,13.33-.21.58-.36,1.26-1.18,1.24-.72-.02-.94-.6-1.11-1.14-1.79-5.74-4.46-11.15-6.37-16.84-.49-1.46-1.27-3.02.5-4.39.68-.52-.15-.74-.58-.74-3.5,0-6.99.03-10.49.07-.34,0-.83-.09-.93.36-.08.37.27.66.55.89,1.24,1.02,2.13,2.28,2.71,3.76.51,1.31.96,2.65,1.52,3.94.57,1.3.48,2.51-.17,3.75-1.08,2.08-2.02,4.23-2.74,6.47-.14.44-.43.98.14,1.24.7.31.87-.36,1.06-.82.58-1.4,1.11-2.81,1.69-4.21.28-.69.68-1.44,1.47-1.46.87-.02.89.9,1.11,1.5.87,2.44,1.66,4.92,2.57,7.35,1.52,4.09,3.31,8.08,4.6,12.27.18.58.21,1.45.93,1.44.81,0,1.24-.84,1.34-1.54.32-2.23,1.38-4.21,2.17-6.26,1.84-4.79,3.64-9.59,5.54-14.36,1.89-4.75,2.83-9.95,6.24-14.2h-5.8ZM2.99,161.68c-.31-.02-.66-.06-.83.25-.23.41.06.7.36.92.62.45.94,1.1,1.27,1.75,2.6,5.05,4.53,10.4,6.56,15.68,2.16,5.62,4.7,11.1,6.51,16.86.14.45.33.93.9.95.61.03.71-.51.89-.93,1.38-3.25,2.75-6.51,4.13-9.77.51-1.2,1.05-2.38,1.54-3.58.2-.48.4-1.09-.26-1.34-.6-.23-.77.36-.96.78-.22.47-.4.96-.61,1.44-.24.51-.39,1.16-1.1,1.18-.77.03-.81-.68-1.03-1.19-.94-2.26-1.89-4.51-2.8-6.78-1.6-4-3.2-8-4.73-12.02-.4-1.04-.49-2.15.5-3.03.23-.21.44-.48.29-.82-.19-.42-.58-.38-.94-.35-3.23.28-6.45.17-9.68,0Z"/>
      <path class="cls-1" d="M226,186.63c.11,2.53-.93,5.61-3.03,8.37-4.02,5.3-13.88,6.02-18.48-1.18-3.67-5.75-2.8-15.59,3.41-19.83,3.86-2.64,9.77-2.35,13.68.94,3.34,2.82,4.4,6.56,4.43,11.69ZM210.21,185.78h-.23c0,.73-.03,1.46,0,2.18.14,2.53-.16,5.11,1.17,7.47.67,1.18,1.7,2.03,2.95,2.03,1.38,0,2.54-.89,3.19-2.19.51-1.03.81-2.14.88-3.3.22-3.58.31-7.17.22-10.76-.04-1.56-.18-3.12-.73-4.61-.55-1.48-1.98-2.55-3.41-2.6-1.5-.04-2.76.87-3.43,2.49-.4.98-.6,2-.62,3.04-.03,2.08,0,4.16,0,6.24Z"/>
      <path class="cls-1" d="M90.9,185.05c0,2.29.01,4.59,0,6.88,0,.8.07,1.55.52,2.25.79,1.24,1.6,1.34,2.64.29.44-.44.82-.94,1.28-1.36.28-.25.67-.33,1.02-.09.35.24.44.64.26.97-1.13,2.11-2.53,4.12-4.9,4.79-2.3.65-4.66.49-6.57-1.38-1.27-1.24-1.92-2.76-1.99-4.46-.21-4.95-.29-9.9-.1-14.85.05-1.28-.28-2.03-1.7-1.98-.49.02-1.13.23-1.34-.46-.23-.73.27-1.15.81-1.53,2.88-2.03,5.33-4.5,7.32-7.41.35-.51.61-1.09.96-1.61.31-.48.68-1.04,1.34-.89.75.18.6.88.59,1.43-.03,1.93-.04,3.86-.14,5.78-.07,1.31.5,1.81,1.75,1.76.99-.04,1.98-.08,2.97-.04.79.03,1.44.33,1.43,1.3,0,.99-.48,1.61-1.48,1.65-.99.04-1.98-.03-2.97-.06-1.26-.04-1.78.59-1.76,1.82.03,2.4,0,4.79,0,7.19.03,0,.05,0,.08,0Z"/>
      <path class="cls-1" d="M115.32,197.78c-.17.09-.34.18-.51.27-.56-.21-1,.19-1.49.28-4.47.85-8.36.35-11.11-3.35-1.12-1.5-1.79-3.2-2.13-4.98-1.03-5.39-.67-10.54,3.72-14.49,2.95-2.66,6.33-3.74,10.31-2.03,3.68,1.59,5.17,4.59,5.89,8.21.37,1.86.18,2.07-1.75,2.08-3.23.02-6.46.03-9.7.06-1.06,0-2.17.18-2.06,1.54.3,3.8,1.36,7.29,4.82,9.51,1.63,1.05,3.24.96,4.83-.12,1.09-.75,1.92-1.75,2.72-2.78.25-.32.53-.79.99-.46.41.29.17.75.01,1.14-.32.82-1.3,1.24-1.31,2.24-.35.4-.69.8-1.04,1.2-.4,0-.59.19-.58.58-.19.14-.38.28-.56.43-.54-.06-.85.21-1.04.68ZM110.16,182.29c.78,0,1.56.03,2.34,0,.82-.03,1.45-.4,1.4-1.32-.1-1.55-.16-3.14-.77-4.58-1.02-2.46-3.26-2.75-5.03-.74-.66.75-.79,1.67-1.03,2.57-1.04,3.89-.91,4.06,3.09,4.08Z"/>
      <path class="cls-1" d="M436.68,160.69c4.44,0,8.87-.01,13.31,0,2.31,0,2.76.48,2.79,2.73.02,2.14.07,4.28.07,6.41,0,.83.05,1.77-1.18,1.82-1.12.04-1.34-.75-1.5-1.63-.69-3.79-2.16-5.04-5.8-5.93-2.19-.53-4.34-.41-6.51-.55-1.41-.09-1.98.57-1.98,1.95.02,3.75,0,7.51-.04,11.26-.01,1.25.58,1.7,1.75,1.56,2.74-.32,5.06-2.46,5.59-5.17.13-.66.23-1.34.4-1.99.17-.67.67-.89,1.32-.83.61.06,1.01.42,1.01,1,.02,5.58.01,11.15-.02,16.73,0,.56-.41.96-1,1.04-.68.09-1.12-.28-1.28-.89-.2-.75-.32-1.53-.47-2.3-.51-2.64-3.11-4.82-5.8-4.87-.97-.02-1.5.44-1.46,1.4.13,3.85-.15,7.72.24,11.57.15,1.45.95,2.26,2.37,2.49.46.07.95.06,1.39.18.54.15.91.52.88,1.14-.03.55-.43.85-.9.95-.5.11-1.04.15-1.55.1-5-.43-10-.41-15,0-.51.04-1.05,0-1.54-.12-.51-.13-.7-.6-.69-1.11,0-.54.28-.89.81-.99.36-.07.73-.07,1.09-.13,2.11-.33,2.94-1.17,2.95-3.32.04-9.13.03-18.25,0-27.38,0-1.81-.82-2.61-2.64-2.89-.41-.06-.84-.07-1.24-.15-.64-.14-1.01-.53-.96-1.22.04-.64.46-.9,1.04-.96.36-.04.73-.05,1.09-.03,4.49.26,8.98.08,13.46.13ZM434.87,171.04h.02c0-2.03,0-4.07,0-6.1,0-1.44.57-2.24,2.15-2.18,1.72.07,3.47-.16,5.16.06,4.27.55,7.53,1.49,8.7,6.14.1.38.16.93.74.8.53-.12.42-.67.41-1.06-.07-1.92-.15-3.85-.25-5.77-.05-1.01-.73-1.24-1.62-1.28-8.08-.34-16.17.11-24.25-.02-.4,0-.9-.1-1.07.41-.15.45.28.61.55.84,1.23,1,1.69,2.32,1.61,3.88-.06,1.2-.14,2.39-.13,3.59.03,7.3.07,14.6.15,21.89.02,1.66-.38,3.08-1.58,4.24-.26.25-.61.49-.41.92.19.42.6.33.96.32,3.29-.14,6.57-.17,9.85.02.36.02.76.04.97-.34.23-.42-.06-.73-.36-.92-1.11-.71-1.32-1.84-1.42-2.99-.33-3.8-.1-7.61-.14-11.41-.01-1.25.82-1.74,1.96-1.74,2.62,0,6.07,1.24,6.79,4.81.1.47.1,1.24.77,1.15.65-.09.47-.84.47-1.32.02-3.44.02-6.88,0-10.32,0-.58.28-1.51-.44-1.64-.8-.14-.71.86-.89,1.39-.97,2.9-3.39,4.68-6.43,4.68-1.67,0-2.25-.57-2.26-2.25-.01-1.93,0-3.86,0-5.79Z"/>
      <path class="cls-1" d="M75.29,186.42c0,2.14.04,4.28-.02,6.41-.03,1.16.35,1.81,1.54,2.14,1.48.4,1.55.99.46,2.01-1.65,1.54-3.46,2.68-5.85,2.49-1.92-.15-3.42-.95-4.18-2.78-.48-1.16-1.09-.94-1.76-.3-.88.84-1.86,1.53-2.93,2.07-2.92,1.46-6.11,1.58-8.24-1.39-1.64-2.29-1.24-5.81,1.13-8.12,2.18-2.13,4.89-3.53,7.55-4.95,3.89-2.08,4.34-2.95,3.37-7.22-.27-1.2-1.18-1.87-2.29-2.1-1.18-.24-2.32.14-3.15,1.01-.68.72,0,1.33.44,1.9,1,1.29,1.49,2.68.48,4.17-1.07,1.6-2.53,2.45-4.53,2.08-2.46-.46-4.12-3.47-3.19-5.8,1.39-3.49,4.47-4.93,7.71-5.78,2.91-.76,5.98-.94,8.85.54,2.81,1.45,4.55,3.63,4.6,6.89.04,2.24,0,4.48,0,6.73,0,0,0,0,.01,0ZM74.3,186.5s-.01,0-.02,0c0-2.09-.04-4.17,0-6.25.08-3.16-1.37-5.54-4.14-6.72-4.78-2.03-9.27-.93-13.36,2.07-1.15.84-1.72,2.05-1.98,3.44-.27,1.41.27,2.52,1.41,3.22,1.14.7,2.49,1,3.7.18,1.63-1.1,2.3-2.51.89-4.14-1.62-1.89-1.13-3.22,1.21-4.13,1.93-.75,4.22.23,5.14,2.09.66,1.34.42,2.75.53,4.14.1,1.29-.4,2.15-1.53,2.81-2.96,1.74-6.09,3.16-8.89,5.18-2.4,1.73-3.2,4.02-2.77,6.82.28,1.81,1.72,2.96,3.57,3.15,1.92.2,3.58-.53,5.25-1.26.37-.16.81-.35.83-.84.02-.59-.53-.52-.89-.68-2.19-.95-3.14-2.83-2.36-4.93.91-2.44,2.79-4.13,4.85-5.57,1.13-.79,2.04-.15,2.01,1.22-.02.78-.11,1.56-.09,2.34.04,1.68.12,3.33-1.16,4.7-.47.5-.48,1.08.37,1.27.75.17.93.73,1.08,1.37.22.99.92,1.63,1.78,2.07,1.69.87,5.54.09,6.73-1.33.47-.55.35-1.02-.35-1.12-1.63-.23-1.77-1.44-1.8-2.67-.05-2.14-.01-4.27-.01-6.41ZM66.76,188.54c0-.52.01-1.04,0-1.56-.01-.45.18-1.01-.39-1.23-.51-.2-.88.2-1.22.52-1.02.97-2,1.97-2.79,3.13-.71,1.05-.82,2.24-.64,3.44.14.94.73,1.64,1.61,1.95.94.32,1.35-.5,1.88-1.06,1.4-1.48,1.79-3.23,1.55-5.19Z"/>
      <path class="cls-1" d="M465.57,178.18c0,5.06,0,10.11,0,15.17,0,1.37.17,2.6,1.79,3.08.8.24.86,1,.73,1.7-.16.89-.86.72-1.49.67-3.54-.31-7.08-.29-10.62-.03-.68.05-1.58.4-1.86-.6-.24-.87.22-1.49,1.08-1.81,1.38-.5,1.37-1.71,1.38-2.86.01-5.42,0-10.84,0-16.26,0-3.8.01-7.61,0-11.42,0-1.23-.08-2.37-1.56-2.89-.77-.27-.94-1.13-.77-1.87.17-.73.88-.64,1.44-.56,2.44.34,4.9.14,7.35.17,2.28.03,2.54.26,2.54,2.49,0,5,0,10.01,0,15.01h-.01ZM464.72,178.64h0c0-5.06-.01-10.12,0-15.17,0-1.13-.2-1.97-1.59-1.96-2.19.02-4.38-.02-6.57-.02-.3,0-.67-.06-.84.27-.19.38.16.57.4.73,1.38.93,1.67,2.32,1.67,3.83,0,8.86,0,17.73,0,26.59,0,1.51-.25,2.92-1.67,3.82-.25.16-.58.35-.45.73.13.36.5.33.81.33,3.03,0,6.05-.02,9.08-.03.3,0,.66.04.84-.29.19-.36-.07-.6-.32-.79-1.23-.93-1.37-2.25-1.37-3.65.01-4.8,0-9.59,0-14.39Z"/>
      <path class="cls-1" d="M180.36,185.42c.12-2.52-.18-5.49.13-8.45.12-1.17-.81-1.6-1.55-2.14-.52-.37-1.16-.65-.89-1.43.24-.69.92-.6,1.48-.6,2.66-.01,5.32.01,7.98.01,1.2,0,2.08.3,1.85,1.79-.06.4-.03.9.5,1.01.47.09.74-.31,1-.63,1.64-2.05,3.61-3.4,6.41-3.12,1.75.17,3.05,1.45,3.4,3.5.3,1.78-.77,3.96-2.26,4.61-1.69.73-3.27.31-4.45-1.18-1.24-1.57-2.11-1.52-3.15.23-.88,1.47-1.24,3.09-1.26,4.78-.04,3.28-.04,6.56-.03,9.85,0,1.26.24,2.35,1.77,2.71.8.19,1.12.93.99,1.73-.15.86-.88.74-1.49.74-3.69,0-7.38,0-11.07-.01-.6,0-1.33.2-1.6-.6-.28-.83.14-1.43.86-1.79,1.15-.58,1.41-1.58,1.41-2.74,0-2.6,0-5.21,0-8.26ZM188.62,189.06h.01c0-1.41-.09-2.82.02-4.22.2-2.45.53-4.89,2.19-6.89,1.4-1.69,2.15-1.67,3.55.02,1.11,1.33,2.49,1.75,3.72,1.14,1.27-.63,1.92-2.31,1.58-4.09-.27-1.46-1.47-2.47-2.96-2.54-1.56-.07-2.82.63-3.99,1.54-1,.78-1.76,1.77-2.54,2.75-.32.4-.79.77-1.36.47-.5-.26-.44-.79-.43-1.25.01-.31.08-.62.13-.93.18-1.15-.34-1.67-1.47-1.67-2.3,0-4.59-.02-6.89-.02-.35,0-.8-.05-.9.41-.08.36.27.53.52.71.97.7,1.63,1.51,1.62,2.84-.04,5.27-.01,10.54,0,15.8,0,1.46-.21,2.82-1.61,3.68-.26.16-.53.41-.4.77.14.35.5.34.81.31,3.23-.28,6.46-.21,9.7-.04.32.02.68.01.81-.32.14-.36-.18-.56-.44-.73-1.34-.86-1.67-2.19-1.67-3.66,0-1.36,0-2.71,0-4.07Z"/>
      <path class="cls-1" d="M135.33,188.97c0,1.56,0,3.13,0,4.69,0,1.24.36,2.25,1.64,2.75.74.29,1.28.83,1.09,1.68-.23,1.03-1.13.75-1.81.69-3.6-.3-7.19-.31-10.78,0-.61.05-1.34.24-1.58-.59-.26-.87.07-1.53.95-1.86,1.09-.41,1.47-1.28,1.47-2.35,0-5.53,0-11.06,0-16.59,0-1.21-.51-2.11-1.64-2.59-.59-.25-1.01-.6-.84-1.29.18-.72.81-.73,1.39-.73,2.71,0,5.43.02,8.14.02,1.1,0,1.84.33,1.74,1.62-.03.4-.07.9.43,1.07.55.18.84-.25,1.15-.61,1.47-1.69,3.08-3.08,5.53-3.05,2.95.03,4.96,2.96,3.87,5.73-1.21,3.07-3.74,3.56-6.07,1.17-1.69-1.74-2.39-1.65-3.5.53-.85,1.66-1.09,3.47-1.14,5.31-.04,1.46,0,2.92,0,4.38h-.02ZM124.94,173.46c-.11.13-.22.27-.34.4,2.88,1.16,2.62,3.54,2.6,5.85-.03,4.32-.02,8.65-.01,12.97,0,1.54-.06,3.01-1.42,4.11-.61.5-.39.95.38.95,3.18.03,6.36.03,9.54.03.23,0,.56-.1.67-.27.23-.36-.12-.56-.37-.73-1.49-.99-1.75-2.48-1.74-4.11.02-2.34-.03-4.69.02-7.03.05-2.31.39-4.58,1.52-6.64,1.49-2.7,2.62-2.86,4.75-.75.22.22.44.46.7.63.97.6,1.98.66,2.94,0,1.29-.89,1.71-3.06.94-4.52-.92-1.74-2.38-2.33-4.19-1.63-1.58.61-2.96,1.52-4.01,2.88-.38.49-.82.95-1.3,1.33-.83.64-1.37.39-1.45-.65-.04-.51.06-1.04.07-1.56.02-.73-.33-1.25-1.08-1.26-2.74-.03-5.49-.01-8.23-.01Z"/>
      <path class="cls-1" d="M118.55,194.9c0-1,.99-1.42,1.31-2.24.15-.4.39-.85-.01-1.14-.47-.33-.75.15-.99.46-.8,1.03-1.63,2.04-2.72,2.78-1.58,1.08-3.2,1.16-4.83.12-3.46-2.23-4.51-5.71-4.82-9.51-.11-1.36,1-1.53,2.06-1.54,3.23-.03,6.46-.04,9.7-.06,1.92,0,2.12-.22,1.75-2.08-.72-3.62-2.21-6.62-5.89-8.21-3.97-1.72-7.35-.63-10.31,2.03-4.39,3.95-4.75,9.1-3.72,14.49.34,1.79,1.02,3.48,2.13,4.98,2.75,3.7,6.63,4.2,11.11,3.35.5-.09.94-.49,1.49-.28-.21.94-1.07.98-1.72,1.07-6.27.86-10.87-.19-13.29-7.47-1.69-5.07-1.2-9.93,1.6-14.55,2.28-3.75,7.5-6.17,11.71-5.09,2.92.75,4.91,2.79,6.43,5.36,1.04,1.76,1.13,3.76,1.56,5.67.29,1.28-.68,1.74-1.82,1.74-3.29.01-6.58.03-9.86,0-1.8-.01-2.12.2-1.86,1.94.47,3.15,1.25,6.17,4.54,7.67,1.7.77,3.56.36,4.81-1.06.59-.66,1.12-1.37,1.64-2.08.41-.55.89-.95,1.59-.64.75.33.87,1.04.67,1.73-.35,1.19-1.1,2.07-2.25,2.59Z"/>
      <path class="cls-1" d="M257.23,174.83c.52.55,1.12.79,1.93.81,1.64.03,2.15.64,2.12,2.2-.08,4.27-.21,8.54.11,12.82.16,2.17.26,4.41-1.6,6.12-.6.55-.3.97.43.97,3.03.02,6.06.02,9.08,0,.79,0,.97-.46.37-.96-1.44-1.22-1.58-2.83-1.59-4.54,0-4.69-.07-9.39-.11-14.08-.02-2.07.23-2.36,2.24-2.54.75-.07,1.57-.11,1.57-1.11,0-1.02-.83-1.04-1.57-1.09-2.17-.15-2.23-.22-2.22-2.43,0-1.88.02-3.76,0-5.63,0-.91.2-1.76.74-2.51.45-.63.99-1.14,1.83-.83.89.33,1.36,1.06,1.16,1.98-.26,1.17-.29,2.2.85,2.9,1.17.72,2.51.75,3.57.03,1.56-1.06,2.58-.53,3.57.7-1.44-.37-2.77-.16-4.25.23-3.01.8-4.45-.54-4.5-3.67,0-.54,0-1.11-.68-1.22-.71-.12-1.01.38-1.23.95-.37.96-.17,1.96-.17,2.94,0,1.35.07,2.71-.02,4.06-.09,1.39.37,2.1,1.84,1.93,1.19-.13,1.71.51,1.84,1.61.15,1.21-.29,1.88-1.58,1.97-2.17.16-2.14.19-2.09,2.41.11,4.73.21,9.47.25,14.2.02,1.76.32,3.23,2.39,3.62.72.13.84.7.76,1.33-.13.95-.87.98-1.55.87-2.91-.45-5.83-.2-8.74-.23-1.14-.01-2.28.18-3.42.25-.79.05-1.49-.11-1.59-1.08-.09-.87.46-1.21,1.21-1.33,1.72-.28,2.33-1.46,2.34-3.02.01-4.32-.04-8.64-.06-12.96,0-.62-.07-1.26.03-1.87.27-1.62-.34-2.35-2-2.31-.91.03-1.52-.39-1.25-1.46Z"/>
      <path class="cls-1" d="M160.09,173.87c-1.06,1.72-1.72,1.79-2.61.22-.32-.56-.75-.68-1.29-.68-2.45-.01-4.91-.02-7.36-.02-.35,0-.82-.08-.91.38-.09.45.35.59.67.75,1.04.52,1.51,1.38,1.57,2.52.04.88.15,1.77.15,2.65.01,8.19.01,16.38,0,24.57,0,1.77.12,3.63-1.96,4.53-.24.1-.42.35-.33.64.09.29.37.36.63.34,3.7-.38,7.4-.1,11.1-.11.07,0,.15-.13.22-.2,0-.05.02-.14,0-.15-2.58-1.22-2.48-3.5-2.39-5.84.07-1.72-.04-3.44-.08-5.16-.01-.58-.12-1.2.54-1.49.6-.27,1.12.02,1.59.37,1.25.92,2.37,1.9,4.16,1.81,4.22-.21,7.47-2.37,9.01-6.34,1.88-4.84,1.85-9.66-.2-14.46-.22-.51-.61-.99-.51-1.61,1.21.32,1.15,1.53,1.54,2.36,2.64,5.67,1.14,14.2-2.99,18.1-2.43,2.3-5.29,2.74-8.42,2.34-.85-.11-1.55-.56-2.2-1.12-.39-.34-.86-.69-1.41-.41-.52.26-.35.81-.35,1.26,0,2.19.08,4.38,0,6.57-.06,1.52.57,2.37,2.01,2.7.73.17,1.55.3,1.39,1.31-.17,1.03-1.02,1.08-1.83.98-3.7-.45-7.4-.18-11.1-.18-.72,0-1.56.22-1.78-.78-.2-.91.43-1.32,1.19-1.56,1.09-.34,1.34-1.14,1.34-2.19-.02-9.6-.03-19.19-.01-28.79,0-.99-.3-1.69-1.26-2.11-.66-.29-1.45-.7-1.21-1.59.26-.95,1.18-.67,1.87-.67,2.45-.01,4.91,0,7.36.01.57,0,1.34-.11,1.57.46.54,1.32,1.42.83,2.29.6Z"/>
      <path class="cls-1" d="M536.96,188.89c0,1.41.01,2.81,0,4.22-.02,1.48.14,2.82,1.8,3.45.49.19.85.66.67,1.26-.2.69-.81.78-1.4.71-2.23-.26-4.48-.26-6.72-.21-1.25.02-2.5.15-3.74.21-.54.03-1.09-.03-1.34-.6-.25-.58.09-1.07.55-1.32,1.64-.9,1.8-2.37,1.78-4.02-.05-4.9-.07-9.8,0-14.7.02-1.46-.34-2.53-1.71-3.18-.45-.21-1.02-.5-.87-1.14.16-.72.84-.7,1.4-.7,2.5-.01,5.01,0,7.51.02,1.37.01,2.22.54,1.95,2.11-.07.39-.21.9.26,1.12.55.26.88-.21,1.14-.58,1.01-1.37,2.26-2.44,3.8-3.17,2.09-.99,4.14-.53,5.27,1.19,1.26,1.93.94,4.28-.8,5.77-1.33,1.14-3.14.87-4.57-.69-1.68-1.83-2.16-1.79-3.54.32-1.07,1.63-1.35,3.48-1.41,5.37-.05,1.51,0,3.02,0,4.53h-.02ZM532.82,197.38s0,.05,0,.08c1.04,0,2.09,0,3.13,0,1.12-.01,1.68-.35.81-1.47-.46-.59-.79-1.29-.78-2.01.06-4.86-.79-9.81,1.19-14.51.24-.57.34-1.27-.37-1.45-1.42-.38-1.21-1.26-.97-2.3.4-1.71.01-2.18-1.75-2.21-1.72-.02-3.44-.02-5.16,0-.4,0-.89-.09-1.11.37-.23.49.17.78.47,1.04.64.56.89,1.24.88,2.07-.02,5.68,0,11.36-.01,17.03,0,.84-.07,1.67-.75,2.3-.26.25-.53.56-.29.96.22.37.62.32.98.3,1.25-.07,2.49-.14,3.74-.2ZM544.13,172.6c-2.25.38-4.19,1.55-5.55,3.64-.14.22-.28.47-.11.72.18.26.47.23.68.06,1.49-1.25,2.31-.23,3.16.88.83,1.07,1.92,1.63,3.29,1.09,1.08-.43,1.99-2.56,1.69-3.76-.33-1.35-1.78-2.61-3.17-2.61Z"/>
      <path class="cls-1" d="M285.21,184.17c0,3.02,0,6.05,0,9.07,0,1.45.29,2.68,1.87,3.24.74.26,1,.91.8,1.66-.22.85-.92.68-1.54.63-3.65-.28-7.29-.28-10.94,0-.62.05-1.32.19-1.52-.67-.18-.76.12-1.38.85-1.64,1.43-.53,1.79-1.71,1.8-3,.04-5.47.01-10.95.02-16.42,0-1.04-.61-1.59-1.45-2.02-.64-.33-1.45-.68-1.17-1.59.26-.84,1.11-.62,1.76-.63,2.45-.01,4.9,0,7.36.02,1.93.02,2.29.42,2.28,2.29-.02,3.02,0,6.04,0,9.07h-.12ZM284.36,184.54s.03,0,.04,0c0-3.12-.02-6.25.01-9.37.01-1.16-.4-1.76-1.63-1.75-2.08.03-4.17.02-6.25.02-.36,0-.79-.09-.95.33-.16.42.2.67.49.87.88.6,1.33,1.37,1.33,2.48-.03,5.52,0,11.04,0,16.55,0,1.07-.18,2.08-1.1,2.8-.29.23-.58.5-.38.92.19.4.6.37.96.34,2.71-.23,5.41-.21,8.12-.02.31.02.65.04.84-.28.24-.41-.04-.7-.33-.93-1.02-.8-1.16-1.89-1.15-3.08.03-2.97,0-5.93,0-8.9Z"/>
      <path class="cls-1" d="M560.3,184.47c0,2.97.02,5.94,0,8.91-.01,1.38.17,2.58,1.72,3.14.64.23,1.15.83.83,1.63-.29.73-.97.67-1.61.62-3.59-.29-7.18-.3-10.78.01-.61.05-1.34.19-1.52-.67-.15-.73.04-1.42.83-1.64,1.32-.36,1.7-1.38,1.71-2.5.05-5.73.03-11.46.04-17.2,0-1.12-1-1.36-1.61-1.95-.4-.39-1.06-.64-.81-1.35.23-.67.9-.66,1.46-.66,2.56-.01,5.11,0,7.67.02,1.48.01,2.14.74,2.11,2.26-.06,3.13-.02,6.25-.02,9.38h-.03ZM559.42,184.35s.03,0,.04,0c0-3.08-.01-6.15,0-9.23,0-.95-.22-1.69-1.34-1.7-2.3-.02-4.59-.02-6.89-.02-.31,0-.68-.01-.81.33-.13.36.17.58.42.75,1.19.83,1.54,2.03,1.54,3.41,0,5.06.03,10.12-.01,15.17-.01,1.41-.16,2.84-1.51,3.76-.21.14-.44.35-.27.64.18.33.53.29.83.29,2.92,0,5.84,0,8.77,0,.36,0,.79.04.94-.39.12-.35-.18-.58-.43-.77-1.13-.85-1.3-2.06-1.3-3.36,0-2.97,0-5.94,0-8.92Z"/>
      <path class="cls-1" d="M522.62,185.69c.3,4.86-1.65,8.73-5.47,11.75-3.79,3-10.68,2.79-14.24-.46-6.78-6.18-6.85-16.16-.16-22.43,4.13-3.87,10.99-3.72,15.53.33,3.22,2.87,4.58,6.49,4.34,10.81ZM521.89,185.69c.04-2.11-.36-4.14-1.11-6.11-2.62-6.91-12.22-9.6-17.88-4.27-4.64,4.38-5.17,13.09-2.21,17.97,4.39,7.25,13,6.6,17.01,2.82,2.99-2.82,4.19-6.38,4.2-10.41Z"/>
      <path class="cls-1" d="M555.78,167.65c-2.23,0-4.14-1.72-4.07-3.65.06-1.98,1.96-3.66,4.12-3.65,2.39,0,4.4,1.68,4.44,3.7.04,1.91-2.08,3.61-4.49,3.6Z"/>
      <path class="cls-1" d="M306.48,196.13c-.44,1.2.04,1.56,1.24,1.52,2.29-.07,4.59-.02,6.88-.03.45,0,1.01.16,1.27-.35.29-.56-.29-.81-.55-1.17-.63-.84-.71-1.83-.71-2.83-.01-4.43-.07-8.86-.02-13.29.03-2.13-.44-4.02-1.9-5.6-.22-.24-.36-.51-.23-.85,1.84,1.19,2.73,2.96,2.77,5.07.09,4.52.06,9.04.08,13.56,0,1.72-.1,3.48,1.75,4.52.36.2.49.67.34,1.12-.17.53-.6.73-1.09.69-3.32-.28-6.65-.27-9.97-.02-.58.04-1.09-.19-1.17-.79-.13-.94.42-1.43,1.32-1.56Z"/>
      <path class="cls-1" d="M292.38,196.13c-.34,1.03-.11,1.55,1.12,1.52,2.4-.06,4.8-.02,7.2-.03.4,0,.89.08,1.08-.41.17-.41-.18-.67-.42-.94-.74-.83-.94-1.84-.94-2.9,0-3.96-.03-7.92,0-11.88.01-1.87,1.9-4.55,3.48-5.08-.12.61-.67.91-1.01,1.35-1.14,1.49-1.81,3.07-1.74,5.02.11,3.22.02,6.44.04,9.66,0,1.53.18,3.02,1.42,4.14.37.34.52.79.3,1.28-.23.49-.69.61-1.18.58-3.27-.18-6.54-.26-9.81.07-.52.05-1.09.03-1.27-.62-.16-.58.16-1,.63-1.31.34-.22.65-.54,1.12-.46Z"/>
      <path class="cls-1" d="M282.06,167.61c.52-.41,1.05-.81,1.56-1.24,1.08-.92,1.3-2.06.86-3.38-.45-1.33-1.41-2.03-2.76-2.19-1.2-.14-2.38-.13-3.35.83-.62.61-1.38.68-2.16.27-3.72-1.96-7.38-1.67-11.01.26-.26.14-.58.19-.87.27,1.18-2.4,3.61-2.37,5.65-2.43,2.24-.07,4.71-.48,6.73,1.19.47.39.86-.06,1.23-.32,2.11-1.52,5.32-1.05,6.82.98.97,1.32,1.07,2.8.29,4.11-.58.99-1.4,2.19-2.99,1.64Z"/>
      <path class="cls-1" d="M304.16,176.25c.43-1.03,1.19-.86,1.89-.42,1.09.68,1.65,1.7,1.66,3,.04,4.83.15,9.66.1,14.49-.01,1,.27,2.4-1.31,2.78.78-2.54.41-5.15.45-7.73.05-3.07.05-6.14-.03-9.2-.06-2.2-.65-2.74-2.77-2.92Z"/>
      <path class="cls-1" d="M292.71,175.65c.88.09.91.8.91,1.39.01,5.78,0,11.56-.05,17.35,0,.71-.06,1.64-1.17,1.72.65-1.8.55-3.67.51-5.53-.11-4.98.26-9.96-.21-14.93Z"/>
      <path class="cls-1" d="M478.09,78.42c.44.11.5.48.56.85,1.13,6.46,3.31,12.57,6.28,18.4.13.26.14.59.21.89-1.13-.49-1.33-1.67-1.78-2.59-2.44-5.01-4.24-10.25-5.33-15.72-.12-.61-.29-1.22.06-1.82Z"/>
      <path class="cls-1" d="M302.69,174.82c.08.59-.41.79-.75,1.07-.31.26-.65.63-1.09.45-.46-.19-.43-.69-.4-1.09.11-1.4-.64-1.8-1.9-1.77-1.81.04-3.63.03-5.44,0-.88-.02-1.38.31-1.39,1.23-.72-.02-1.27-.31-1.18-1.09.09-.75.8-.72,1.36-.72,2.44,0,4.88,0,7.32.03.8,0,1.74.13,1.82,1.09.12,1.38.85,1.06,1.65.81Z"/>
      <path class="cls-1" d="M171.94,176.31c-.69-.2-1.04-.83-1.5-1.29-2.58-2.61-5.53-3.24-8.93-1.84-.28.11-.59.14-.89.21.32-.92,1.21-1.13,1.94-1.36,3.18-1.03,7.62.76,9.34,3.69.09.15.03.39.04.59Z"/>
      <path class="cls-1" d="M262.61,164.2c-1.15,2.48-1.59,5.07-1.44,7.81.05.96-.45,1.59-1.58,1.16.79-.57.93-1.36.89-2.29-.09-1.92-.04-3.83.97-5.56.28-.48.46-1.07,1.16-1.11Z"/>
      <path class="cls-1" d="M312.34,173.44c-1.57-.16-2.95-1.13-4.64-.88-.95.14-1.79.9-2.83.54,2.07-1.78,5.65-1.62,7.46.33Z"/>
      <path class="cls-1" d="M481.28,42.13c-.53,2.87-1.31,5.67-2.46,8.35-.41-2.22.8-4.1,1.33-6.11.2-.77.19-1.79,1.13-2.25Z"/>
      <path class="cls-1" d="M477.2,69.64c.55.32.5.9.45,1.37-.15,1.67.63,3.32.09,4.99-1.05-2.05-.98-4.19-.55-6.36Z"/>
      <path class="cls-1" d="M477.73,56.3c.21,2.16.24,4.3-.54,6.37-.43-2.17-.48-4.32.54-6.37Z"/>
      <path class="cls-1" d="M456.35,72.86c-1.3-.58-2.17-1.59-2.83-2.81,1.42.46,2.3,1.46,2.83,2.81Z"/>
      <path class="cls-1" d="M478.65,51.29c.26,1.5.13,2.92-.8,4.19-.12-1.47-.31-2.95.8-4.19Z"/>
      <path class="cls-1" d="M264.33,162.45c-.23.81-.72,1.35-1.54,1.57.11-.92.62-1.45,1.54-1.57Z"/>
      <path class="cls-1" d="M258.1,173.18c-.21.38-.45.72-.86.91-.24-.8.11-1.05.86-.91Z"/>
      <path class="cls-1" d="M477.8,76.54c.61.36.69.81.24,1.35-.53-.37-.51-.84-.24-1.35Z"/>
      <path class="cls-1" d="M115.32,197.78c.19-.47.5-.74,1.04-.68-.08.63-.4.9-1.04.68Z"/>
      <path class="cls-1" d="M116.93,196.68c0-.4.19-.59.58-.58.05.44-.14.64-.58.58Z"/>
      <path class="cls-1" d="M149.55,90.1c0,8.08-.02,16.17.02,24.25,0,.92-.36,1.48-1.06,1.92-3.78,2.38-7.55,4.78-11.64,6.61-3.42,1.53-6.89,2.94-10.48,4-8.41,2.49-16.94,4.22-25.76,4.45-5.34.14-10.65-.07-15.91-.8-3.32-.46-6.63-1.22-9.83-2.35-2.67-.94-5.44-1.59-8.05-2.76-4.52-2.02-8.76-4.44-12.78-7.34-4.6-3.32-8.65-7.2-12.08-11.62-2.95-3.8-5.55-7.86-7.36-12.43-1.27-3.19-2.45-6.38-3.39-9.67-1.29-4.52-2.03-9.15-2.27-13.83-.31-6-.03-11.98,1.16-17.9,1.36-6.76,3.76-13.12,7-19.21,2.88-5.42,6.59-10.2,11.15-14.26,7.17-6.38,15.18-11.33,24.49-14.17,3.61-1.1,7.28-1.97,10.92-2.88,3.74-.94,7.64-1.08,11.49-1.23,8.87-.36,17.64.71,26.16,3.12,11.35,3.21,21.33,8.87,29.32,17.72,1.32,1.46,1.4,1.83-.07,3.21-4.07,3.82-8.18,7.59-12.29,11.36-2.27,2.08-4.63,4.06-6.87,6.16-.88.83-1.48.89-2.33,0-3.1-3.27-6.54-6.12-10.49-8.33-4.2-2.35-8.72-3.66-13.47-4.32-5.3-.73-10.56-.38-15.71.83-5.97,1.41-11.15,4.39-15.58,8.72-3.63,3.54-6.06,7.77-8.01,12.37-1.3,3.08-1.51,6.37-1.79,9.62-.43,5.05-.27,10.11.66,15.11.92,4.97,3.35,9.27,6.38,13.22,3.81,4.98,8.63,8.66,14.51,10.99,3.49,1.38,7.14,1.76,10.8,2.14,4.39.46,8.78-.09,13.08-.76,2.85-.44,5.66-1.6,8.26-3.03.95-.52,1.1-1.43,1.1-2.42-.02-10.12-.01-20.24-.04-30.35,0-2.3.15-2.5,2.45-2.5,8.77,0,17.54.01,26.31-.01,1.2,0,2.04.17,2.03,1.66-.03,8.24-.01,16.48-.01,24.72,0,0,0,0,0,0Z"/>
      <path class="cls-1" d="M174.21,65.99c0-19.46,0-38.91,0-58.37,0-.52.01-1.04-.01-1.56-.11-2.3-.03-2.39,2.23-2.39,8.2,0,16.39.01,24.59-.03,1.3,0,2.11.44,2.79,1.56,4.84,8.09,9.71,16.17,14.61,24.23,3.68,6.06,7.48,12.04,11.11,18.12,4.72,7.92,9.48,15.82,14.34,23.66.63,1.02,1.16,2.1,1.68,3.18.29.59.57,1.13,1.33,1.13.73,0,1.08-.49,1.42-1.06,3.15-5.4,6.31-10.79,9.49-16.18,4.77-8.08,9.61-16.11,14.32-24.22,5.63-9.68,11.65-19.14,17.08-28.95.54-.97,1.25-1.46,2.37-1.46,8.56.01,17.12.01,25.68,0,1.39,0,1.87.49,1.71,2.01-.22,2.11-.05,4.27-.05,6.41.03,25.71-.05,51.43.13,77.14.09,12.52.03,25.03.2,37.55.02,1.48-.53,1.9-1.92,1.9-9.34-.03-18.69,0-28.03-.01-1.72,0-1.67-.04-1.76-2.53-.27-7.35-.11-14.7-.18-22.06-.1-11.79-.17-23.57-.24-35.36,0-1.3.07-2.6.14-3.9.03-.64.12-1.33-.61-1.61-.76-.29-1.16.35-1.47.87-1.5,2.5-2.95,5.03-4.44,7.54-5.44,9.19-10.88,18.38-16.33,27.57-3.13,5.29-6.28,10.57-9.4,15.86-.47.8-1.05,1.21-2.01,1.21-4.28-.02-8.56-.02-12.84.01-1.02,0-1.7-.46-2.18-1.26-3.99-6.54-7.96-13.08-11.96-19.62-3.32-5.42-6.68-10.82-9.97-16.25-2.56-4.23-5.34-8.32-7.58-12.75-.12-.23-.22-.48-.39-.68-.41-.5-.93-.95-1.61-.67-.65.27-.62.94-.51,1.5.28,1.45.19,2.91.19,4.37,0,18.62,0,37.24.04,55.86,0,1.47-.56,1.91-1.94,1.9-9.45-.03-18.9-.03-28.35.01-1.49,0-1.7-.78-1.7-1.98.02-6.83.02-13.67.02-20.5,0-13.4,0-26.81,0-40.21Z"/>
      <path class="cls-1" d="M383.91,172.63c-.48.77-1.32.98-2.08,1.28-.63.25-1.2,0-1.41-.61-.83-2.34-2.05-4.57-1.96-7.16.03-.85.15-1.66.57-2.4,1.1-1.93,2.87-2.3,4.56-.96,2.51,2,3.14,6.71,1.2,8.98-.07-.09-.13-.19-.2-.28.6-2.42.83-4.81-.57-7.08-.68-1.09-1.53-2.01-2.88-1.61-1.32.39-1.88,1.51-1.99,2.88-.15,1.94.51,3.68,1.2,5.43.95,2.42,1.02,2.45,3.31,1.31.09.07.17.13.26.2Z"/>
      <path class="cls-1" d="M384.79,171.77c-.18.4-.49.67-.88.86-.08-.07-.17-.13-.26-.2.16-.47.48-.77.94-.94.07.09.13.19.2.28Z"/>
      <path class="cls-1" d="M334.53,187.62c1.04-2.66.7-5.45.79-8.21.04-1.44-.62-2.67-.8-4.03.86.46,1.23,1.3,1.31,2.16.26,2.58.47,5.18.05,7.77-.15.92-.43,1.81-1.35,2.31Z"/>
      <path class="cls-1" d="M331.91,174.32c-2.24,1.51-2.57,3.76-2.6,6.23-.02,1.45.46,2.97-.31,4.38-.87-3.12-.75-6.2.62-9.14.38-.82,1.08-1.68,2.29-1.48Z"/>
      <path class="cls-1" d="M329.1,185.6c.76.45,1.01,1.14.99,1.98-.84-.4-1.18-1.06-.99-1.98Z"/>
      <path class="cls-1" d="M330.24,187.77c.76-.04,1.24.44,1.71.93-.83.16-1.43-.09-1.71-.93Z"/>
      <path class="cls-1" d="M332.58,188.7c.34-.5.78-.79,1.41-.58-.3.6-.8.74-1.41.58Z"/>
      <path class="cls-1" d="M333.99,174.89c-.37.12-.59,0-.63-.4.35-.09.56.04.63.4Z"/>
      <path class="cls-1" d="M47.16,161.85h5.8c-3.41,4.25-4.35,9.45-6.24,14.2-1.9,4.76-3.69,9.57-5.54,14.36-.79,2.04-1.85,4.02-2.17,6.26-.1.7-.53,1.54-1.34,1.54-.73,0-.76-.86-.93-1.44-1.28-4.18-3.07-8.18-4.6-12.27-.91-2.43-1.7-4.91-2.57-7.35-.21-.6-.24-1.52-1.11-1.5-.79.02-1.19.77-1.47,1.46-.57,1.4-1.11,2.81-1.69,4.21-.19.46-.36,1.13-1.06.82-.57-.26-.28-.79-.14-1.24.72-2.24,1.66-4.39,2.74-6.47.65-1.24.74-2.44.17-3.75-.56-1.29-1.01-2.63-1.52-3.94-.58-1.48-1.47-2.74-2.71-3.76-.28-.23-.63-.52-.55-.89.1-.45.59-.36.93-.36,3.5-.04,6.99-.07,10.49-.07.43,0,1.26.21.58.74-1.77,1.36-.99,2.92-.5,4.39,1.9,5.69,4.58,11.1,6.37,16.84.17.55.39,1.13,1.11,1.14.82.02.97-.66,1.18-1.24,1.63-4.44,3.26-8.88,4.88-13.33.53-1.47,1.06-2.94,1.54-4.42.38-1.17.08-2.16-.94-2.89-.33-.24-.75-.39-.72-1.04Z"/>
      <path class="cls-1" d="M2.99,161.68c3.23.17,6.45.28,9.68,0,.36-.03.76-.07.94.35.15.34-.06.62-.29.82-.99.88-.9,1.99-.5,3.03,1.54,4.02,3.13,8.02,4.73,12.02.91,2.27,1.86,4.52,2.8,6.78.21.51.26,1.22,1.03,1.19.7-.03.86-.67,1.1-1.18.22-.47.4-.96.61-1.44.19-.42.35-1.01.96-.78.66.25.46.86.26,1.34-.49,1.2-1.03,2.39-1.54,3.58-1.38,3.25-2.75,6.51-4.13,9.77-.18.42-.28.96-.89.93-.57-.02-.76-.51-.9-.95-1.81-5.76-4.34-11.24-6.51-16.86-2.03-5.28-3.96-10.63-6.56-15.68-.33-.65-.65-1.3-1.27-1.75-.3-.22-.59-.5-.36-.92.17-.32.53-.27.83-.25Z"/>
      <path class="cls-1" d="M210.21,185.78c0-2.08-.02-4.16,0-6.24.01-1.05.22-2.07.62-3.04.67-1.62,1.92-2.53,3.43-2.49,1.43.04,2.86,1.11,3.41,2.6.55,1.48.69,3.05.73,4.61.09,3.59,0,7.18-.22,10.76-.07,1.16-.37,2.27-.88,3.3-.65,1.3-1.81,2.18-3.19,2.19-1.26,0-2.28-.85-2.95-2.03-1.33-2.35-1.03-4.94-1.17-7.47-.04-.73,0-1.46,0-2.18h.23ZM217.32,185.52s.03,0,.05,0c0-1.98,0-3.96,0-5.94,0-1.06-.18-2.09-.6-3.05-.51-1.17-1.38-2.03-2.75-1.93-1.32.1-2.17.89-2.52,2.2-.32,1.21-.75,2.39-.75,3.66,0,3.75,0,7.5-.01,11.25,0,1.43.6,2.65,1.33,3.78,1.09,1.72,3.28,1.54,4.3-.3.61-1.1.94-2.32.95-3.59.02-2.03,0-4.06,0-6.09Z"/>
      <path class="cls-1" d="M434.87,171.04c0,1.93-.01,3.86,0,5.79.01,1.68.59,2.24,2.26,2.25,3.04,0,5.46-1.78,6.43-4.68.18-.54.09-1.53.89-1.39.72.12.44,1.05.44,1.64.02,3.44.02,6.88,0,10.32,0,.49.18,1.23-.47,1.32-.67.09-.68-.68-.77-1.15-.73-3.58-4.17-4.81-6.79-4.81-1.14,0-1.97.5-1.96,1.74.04,3.8-.2,7.61.14,11.41.1,1.15.31,2.28,1.42,2.99.3.19.58.5.36.92-.21.38-.61.36-.97.34-3.28-.19-6.57-.16-9.85-.02-.36.02-.77.1-.96-.32-.19-.42.16-.67.41-.92,1.2-1.16,1.6-2.59,1.58-4.24-.09-7.3-.12-14.59-.15-21.89,0-1.2.07-2.4.13-3.59.08-1.55-.38-2.87-1.61-3.88-.27-.22-.7-.39-.55-.84.17-.51.67-.41,1.07-.41,8.08.13,16.17-.32,24.25.02.88.04,1.56.27,1.62,1.28.1,1.92.19,3.85.25,5.77.01.39.12.94-.41,1.06-.57.13-.64-.42-.74-.8-1.17-4.65-4.43-5.59-8.7-6.14-1.69-.22-3.44.01-5.16-.06-1.58-.06-2.15.74-2.15,2.18,0,2.03,0,4.07,0,6.1h-.02Z"/>
      <path class="cls-1" d="M74.3,186.5c0,2.14-.04,4.28.01,6.41.03,1.22.17,2.43,1.8,2.67.71.1.82.57.35,1.12-1.2,1.42-5.04,2.2-6.73,1.33-.85-.44-1.55-1.08-1.78-2.07-.15-.64-.33-1.2-1.08-1.37-.85-.19-.84-.78-.37-1.27,1.28-1.37,1.2-3.02,1.16-4.7-.02-.78.08-1.56.09-2.34.03-1.37-.88-2.01-2.01-1.22-2.06,1.44-3.94,3.13-4.85,5.57-.78,2.1.16,3.98,2.36,4.93.36.16.91.09.89.68-.02.49-.46.68-.83.84-1.67.73-3.33,1.45-5.25,1.26-1.85-.19-3.29-1.34-3.57-3.15-.43-2.8.36-5.1,2.77-6.82,2.8-2.01,5.94-3.44,8.89-5.18,1.13-.66,1.63-1.52,1.53-2.81-.11-1.39.13-2.8-.53-4.14-.92-1.86-3.21-2.84-5.14-2.09-2.34.91-2.83,2.24-1.21,4.13,1.4,1.63.74,3.05-.89,4.14-1.21.82-2.56.52-3.7-.18-1.14-.7-1.68-1.81-1.41-3.22.26-1.38.83-2.59,1.98-3.44,4.09-3,8.58-4.1,13.36-2.07,2.78,1.18,4.22,3.56,4.14,6.72-.05,2.08,0,4.17,0,6.25,0,0,.01,0,.02,0Z"/>
      <path class="cls-1" d="M464.72,178.64c0,4.8,0,9.59,0,14.39,0,1.4.14,2.72,1.37,3.65.24.18.51.43.32.79-.17.33-.53.29-.84.29-3.03.02-6.05.03-9.08.03-.3,0-.68.04-.81-.33-.13-.37.2-.57.45-.73,1.41-.91,1.67-2.31,1.67-3.82,0-8.86,0-17.73,0-26.59,0-1.52-.29-2.91-1.67-3.83-.24-.16-.6-.35-.4-.73.17-.33.54-.27.84-.27,2.19,0,4.38.04,6.57.02,1.39-.01,1.59.83,1.59,1.96-.02,5.06,0,10.12,0,15.17h0Z"/>
      <path class="cls-1" d="M188.62,189.06c0,1.36,0,2.71,0,4.07,0,1.47.33,2.8,1.67,3.66.26.17.58.37.44.73-.13.34-.49.34-.81.32-3.23-.16-6.47-.24-9.7.04-.31.03-.67.04-.81-.31-.14-.35.14-.61.4-.77,1.4-.86,1.61-2.22,1.61-3.68,0-5.27-.04-10.54,0-15.8.01-1.33-.65-2.13-1.62-2.84-.25-.18-.6-.35-.52-.71.11-.46.55-.41.9-.41,2.3,0,4.59.02,6.89.02,1.12,0,1.65.52,1.47,1.67-.05.31-.12.62-.13.93-.02.47-.08,1,.43,1.25.57.29,1.04-.07,1.36-.47.78-.98,1.54-1.97,2.54-2.75,1.17-.91,2.43-1.62,3.99-1.54,1.49.07,2.68,1.08,2.96,2.54.34,1.78-.31,3.45-1.58,4.09-1.23.61-2.61.19-3.72-1.14-1.4-1.68-2.15-1.7-3.55-.02-1.65,1.99-1.99,4.44-2.19,6.89-.11,1.4-.02,2.81-.02,4.22h-.01Z"/>
      <path class="cls-1" d="M124.94,173.46c2.74,0,5.49-.02,8.23.01.75,0,1.1.53,1.08,1.26-.01.52-.11,1.04-.07,1.56.08,1.04.62,1.29,1.45.65.49-.38.93-.84,1.3-1.33,1.05-1.36,2.43-2.27,4.01-2.88,1.81-.7,3.26-.11,4.19,1.63.77,1.46.35,3.63-.94,4.52-.95.66-1.97.59-2.94,0-.26-.16-.47-.41-.7-.63-2.13-2.11-3.26-1.95-4.75.75-1.13,2.05-1.48,4.33-1.52,6.64-.05,2.34,0,4.69-.02,7.03-.01,1.63.25,3.12,1.74,4.11.25.17.6.37.37.73-.11.17-.44.27-.67.27-3.18,0-6.36,0-9.54-.03-.78,0-1-.46-.38-.95,1.36-1.1,1.42-2.57,1.42-4.11,0-4.32-.02-8.65.01-12.97.02-2.31.28-4.68-2.6-5.85.11-.13.22-.27.34-.4Z"/>
      <path class="cls-1" d="M532.82,197.38c-1.25.07-2.49.13-3.74.2-.37.02-.76.08-.98-.3-.24-.4.03-.71.29-.96.68-.64.75-1.46.75-2.3,0-5.68,0-11.36.01-17.03,0-.84-.25-1.52-.88-2.07-.3-.26-.7-.55-.47-1.04.22-.46.71-.37,1.11-.37,1.72,0,3.44-.02,5.16,0,1.76.02,2.15.5,1.75,2.21-.24,1.03-.45,1.92.97,2.3.71.19.61.88.37,1.45-1.98,4.71-1.13,9.65-1.19,14.51,0,.72.32,1.42.78,2.01.87,1.11.31,1.46-.81,1.47-1.04,0-2.09,0-3.13,0,0-.03,0-.05,0-.08Z"/>
      <path class="cls-1" d="M544.13,172.6c1.39,0,2.84,1.27,3.17,2.61.29,1.21-.61,3.33-1.69,3.76-1.37.55-2.46-.01-3.29-1.09-.86-1.1-1.67-2.12-3.16-.88-.21.18-.5.21-.68-.06-.17-.25-.03-.5.11-.72,1.36-2.08,3.3-3.25,5.55-3.64Z"/>
      <path class="cls-1" d="M284.36,184.54c0,2.97.02,5.93,0,8.9-.01,1.19.13,2.29,1.15,3.08.29.22.57.51.33.93-.19.31-.53.3-.84.28-2.71-.19-5.41-.21-8.12.02-.36.03-.77.06-.96-.34-.2-.42.1-.69.38-.92.92-.72,1.1-1.73,1.1-2.8,0-5.52-.02-11.04,0-16.55,0-1.11-.44-1.88-1.33-2.48-.29-.2-.65-.45-.49-.87.16-.43.59-.33.95-.33,2.08,0,4.17,0,6.25-.02,1.22-.02,1.64.59,1.63,1.75-.03,3.12-.01,6.25-.01,9.37-.01,0-.03,0-.04,0Z"/>
      <path class="cls-1" d="M559.42,184.35c0,2.97,0,5.94,0,8.92,0,1.29.17,2.5,1.3,3.36.25.19.54.42.43.77-.15.43-.58.38-.94.39-2.92,0-5.84,0-8.77,0-.3,0-.66.04-.83-.29-.16-.3.07-.5.27-.64,1.34-.92,1.49-2.36,1.51-3.76.04-5.06.01-10.12.01-15.17,0-1.38-.35-2.57-1.54-3.41-.25-.18-.55-.4-.42-.75.13-.35.5-.33.81-.33,2.3,0,4.59,0,6.89.02,1.12.01,1.34.75,1.34,1.7-.02,3.08,0,6.15,0,9.23-.01,0-.03,0-.04,0Z"/>
      <path class="cls-1" d="M521.89,185.69c0,4.03-1.21,7.59-4.2,10.41-4.01,3.77-12.61,4.43-17.01-2.82-2.96-4.88-2.43-13.59,2.21-17.97,5.65-5.33,15.25-2.64,17.88,4.27.75,1.98,1.15,4,1.11,6.11ZM506.67,185.84c0,2.7-.46,5.44.36,8.08.62,1.98,2.1,3.27,3.42,3.18,1.43-.1,2.85-1.58,3.16-3.64.75-4.92.66-9.86.27-14.81-.05-.62-.2-1.24-.42-1.83-.53-1.4-1.42-2.46-3.04-2.51-1.56-.05-2.51.89-3.09,2.22-.48,1.11-.62,2.32-.65,3.52-.04,1.93-.01,3.85-.01,5.78Z"/>
    </g>
  </g>
</svg>