<svg xmlns="http://www.w3.org/2000/svg" viewBox="0 0 782.15 247.58"><defs><style>.cls-1{fill:#fff;}</style></defs><g id="Layer_2" data-name="Layer 2"><g id="Layer_1-2" data-name="Layer 1"><path class="cls-1" d="M453.87,105.15a17.93,17.93,0,0,0-1.17,1.62q-14,23.61-28,47.24a3.73,3.73,0,0,1-3.65,2.14c-3.6-.1-7.2-.12-10.8,0a4.1,4.1,0,0,1-4.08-2.29c-3.45-5.75-7-11.45-10.49-17.18q-8.06-13.2-16.07-26.42l-2.36-3.91a10.48,10.48,0,0,0-.51,1.93q0,27.83.09,55.63c0,4.16,0,4.15-4.11,4.14H347.08c-.32,0-.64,0-1,0-1.77-.09-2.18-.51-2.3-2.35,0-.48,0-1,0-1.44v-117c0-2.61.4-3,3.07-3.05,8,0,16,.05,24,0a3.85,3.85,0,0,1,3.67,2.14q9.12,15.21,18.34,30.38,8.26,13.62,16.58,27.23c1.83,3,3.61,6,5.43,9a12.79,12.79,0,0,0,1.15,1.43,17.83,17.83,0,0,0,1.23-1.64q9.59-16.06,19.12-32.14c5.58-9.43,11.11-18.87,16.67-28.31,1.21-2.07,2.48-4.1,3.62-6.21a3.2,3.2,0,0,1,3.05-1.9c8.32,0,16.63,0,24.95,0,2.18,0,2.51.49,2.52,2.82q0,12.82.1,25.66.15,45.68.29,91.36v.48c0,3.28-.18,3.46-3.58,3.47H467.47c-3.28,0-6.56,0-9.84,0-2.49,0-2.79-.29-2.83-2.73-.08-4.63-.12-9.27-.15-13.9q-.13-20.87-.24-41.73c0-1.46,0-2.93,0-4.4Z"/><path class="cls-1" d="M607.7,103.33l2.41,1.17c6.44,3.06,11.73,7.4,15.22,13.73a28.81,28.81,0,0,1,3.56,11.36c.53,5.95.21,11.81-2.38,17.36-3.26,7-8.63,11.8-15.46,15.09a61.8,61.8,0,0,1-17.91,5.11,122.9,122.9,0,0,1-18.18.91H513.78c-2.25-.06-2.67-.46-2.75-2.64,0-.64,0-1.28,0-1.92q0-58.14,0-116.29c0-2.65.34-3.06,3-3.05,22.07,0,44.14,0,66.21.17A61.75,61.75,0,0,1,603.17,49a34,34,0,0,1,14.06,10.51,24.49,24.49,0,0,1,5.39,14.58c.17,4.32.08,8.61-1.41,12.78a30.39,30.39,0,0,1-11.77,15C609,102.27,608.51,102.68,607.7,103.33Zm-61.33,38.61a9.14,9.14,0,0,0,1.63.31c9.42,0,18.85.08,28.27-.12a45.68,45.68,0,0,0,9.18-1.44A9.76,9.76,0,0,0,591,137c3.6-4.64,3.53-15-5.61-17.76a43.29,43.29,0,0,0-12.56-1.52c-8,0-16,0-24,0-2.41,0-2.59.16-2.59,2.57q0,10.05,0,20.11C546.21,140.89,546.31,141.35,546.37,141.94Zm14.39-49v-.13c3.75,0,7.51,0,11.26,0a22.29,22.29,0,0,0,8.64-1.7c4.13-1.76,6.06-5,6.25-9.37a9.82,9.82,0,0,0-5.78-9.43,24.27,24.27,0,0,0-9.79-2c-7.74-.18-15.49-.1-23.24-.09-1.55,0-1.87.31-1.88,1.8q0,9.58,0,19.16c0,1.52.35,1.77,1.87,1.77Z"/><path class="cls-1" d="M321.52,129.39c0,7.52-.07,15,0,22.54a5.14,5.14,0,0,1-2.64,4.91,88.73,88.73,0,0,1-30.6,12.07,91,91,0,0,1-21.21,1.9c-13.39-.38-26-3.69-37.22-11a60.06,60.06,0,0,1-26.41-37.44,66.79,66.79,0,0,1,1.66-38,59.55,59.55,0,0,1,21.09-29,68.75,68.75,0,0,1,32.12-12.91,84.12,84.12,0,0,1,37.44,2.93,60.24,60.24,0,0,1,27,17.21c1.59,1.75,1.58,2-.22,3.64q-9.5,8.63-19,17.27c-1.63,1.48-2,1.55-3.56,0a44.6,44.6,0,0,0-9.77-7.67,31.17,31.17,0,0,0-9.15-3.46c-10-2.08-19.62-1.4-28.47,4.06-8.52,5.25-12.9,13.22-14.46,23a44,44,0,0,0,0,14.07,32.67,32.67,0,0,0,9.59,18.91c5.89,5.67,13.11,8.39,21.21,8.88a44.12,44.12,0,0,0,18.58-2.84c2.25-.85,2.3-.93,2.3-3.28q0-14.39,0-28.77c0-.48,0-1,0-1.44a1.63,1.63,0,0,1,1.71-1.64c.56,0,1.12-.05,1.68-.05h25c.48,0,1,0,1.44,0a1.75,1.75,0,0,1,1.81,1.83c0,.72,0,1.44,0,2.16Q321.53,118.25,321.52,129.39Z"/><path class="cls-1" d="M709.06,41.17c12.72.34,24.8,2.86,36,9.09a58,58,0,0,1,15.91,13.31c1.37,1.62,1.33,1.94-.22,3.34q-8.55,7.71-17.11,15.39c-.71.65-1.4,1.31-2.1,2-1.43,1.34-1.92,1.25-3.36-.13a86.71,86.71,0,0,0-7.24-6.6,31.71,31.71,0,0,0-18.33-6.29c-8.45-.35-16.38,1.4-23.2,6.77A30.31,30.31,0,0,0,678.7,93.86c-3.1,10.81-2.57,21.36,2.89,31.36a28.89,28.89,0,0,0,17.61,14.26c10,3,19.8,2.35,29-2.87a56.44,56.44,0,0,0,7.4-5.66,29.19,29.19,0,0,0,2.45-2.63c1.42-1.5,2.08-1.52,3.59-.14l4.94,4.54q7.07,6.48,14.13,13c1.56,1.45,1.57,1.7.21,3.33a56.93,56.93,0,0,1-22,16.11,75.36,75.36,0,0,1-27.53,5.69,78,78,0,0,1-28.74-4.44,61.45,61.45,0,0,1-27-18.5A62.13,62.13,0,0,1,641,109.2a66.48,66.48,0,0,1,3.62-25.46,60.88,60.88,0,0,1,20.18-28,66.62,66.62,0,0,1,29.33-12.91C699,41.94,704.06,41.71,709.06,41.17Z"/><path class="cls-1" d="M120.91,70.7a1.87,1.87,0,0,0-.88-2.61c-1.75-1.16-2.08-2.77-2.07-4.76.07-12.07,0-24.14.07-36.21a4.59,4.59,0,0,0-2-4.05c-2.21-1.7-4.17-3.72-6.27-5.56s-4.36-3.74-6.54-5.61c-.63-.54-1.37-1.1-2.12-.52A2.32,2.32,0,0,0,100.5,13c.08,7.27.26,14.53.33,21.8.06,5.91,0,11.82,0,17.72,0,1.16.31,2.56-1.18,3.1-1.27.46-2-.55-2.88-1.28l-13.7-12-7.77-6.77a6.1,6.1,0,0,1-2.4-5.45,26.7,26.7,0,0,0,0-5.51c-.38-3.12,1.19-5.11,3.43-6.9Q85.87,10.16,95.37,2.5c.43-.35.84-.74,1.24-1.13a4.57,4.57,0,0,1,6.4-.12c5.1,4.59,10.19,9.19,15.35,13.73,1.91,1.68,4,3.13,6,4.76a6.54,6.54,0,0,1,2.56,5.39c-.08,14.63-.06,29.26,0,43.89a4.69,4.69,0,0,1-1.39,3.89c-1,.9-.92,1.66.06,2.69.82.86,1.82,1.54,2.73,2.32,5.22,4.46,10.43,8.94,15.67,13.37A5.25,5.25,0,0,1,146,95.83c-.16,4.47,0,9,0,13.42,0,.4,0,.8,0,1.2-.17,1.74-1.44,2.58-2.78,1.56a44.43,44.43,0,0,1-5.65-5.15,4.59,4.59,0,0,1-.63-2.71c-.08-2.32,0-4.64,0-7a3.39,3.39,0,0,0-1.36-2.88c-4.48-3.72-8.88-7.54-13.35-11.28-.63-.52-1.56-1.24-2.19-1.11-1.17.24-.87,1.54-.87,2.45,0,4.79,0,9.59,0,14.38V199c0,3.68-.09,7.35,0,11a5.71,5.71,0,0,1-2.28,5c-2.74,2.19-5.39,4.5-8.09,6.75-3.24,2.71-6.5,5.4-9.72,8.14-1.11.95-2.13,2.1-3.76,1.49a5.33,5.33,0,0,1-3.48-4,7.7,7.7,0,0,1-.1-1.67q0-56.82,0-113.66c0-4.63,0-9.27,0-13.91a7.85,7.85,0,0,1,3-6.62c5.26-4.42,10.2-9.2,15.28-13.82,1.66-1.51,3.36-3,5-4.47S118.29,70,120.91,70.7Z"/><path class="cls-1" d="M74,129.51v77c0,1.12.1,2.24,0,3.35-.12,1.5-1,1.91-2.31,1.06A19.58,19.58,0,0,1,70,209.5c-5.51-4.73-11-9.44-16.53-14.2-2.11-1.83-4.13-3.76-6.17-5.66a4,4,0,0,1-1.28-3.24c0-1.76,0-3.51,0-5.27q0-57.78,0-115.57a6.88,6.88,0,0,1,2.36-5.68c4.71-4.19,9.32-8.51,14-12.76,2.89-2.65,5.8-5.27,8.67-7.93,1.83-1.69,2.58-1.69,4.47-.07q11,9.45,22,18.82A6,6,0,0,1,100,63.06c-.14,5.91-.08,11.83,0,17.74a5.31,5.31,0,0,1-2.07,4.58c-1.24,1-2.36,2.16-3.65,3.09a3,3,0,0,1-2.14.51c-.92-.24-.74-1.24-.73-2q.15-11.27.27-22.52a3.81,3.81,0,0,0-1.26-3c-1.47-1.34-2.94-2.69-4.45-4q-5-4.3-10-8.55a5.61,5.61,0,0,0-1.67-.66,7.11,7.11,0,0,0-.43,1.72c0,2.39.13,4.79.13,7.18Q74,93.31,74,129.51Z"/><path class="cls-1" d="M136.87,154.22V115.86a2.11,2.11,0,0,1,0-.71c.26-.72.4-1.75.92-2a2.73,2.73,0,0,1,2.13.48,13.89,13.89,0,0,1,2.56,2.16,140.33,140.33,0,0,0,12,10.58c4.35,3.64,8.47,7.54,12.73,11.28,2.87,2.53,5.83,5,8.72,7.47q8,6.93,15.85,13.89c1.37,1.22,1.25,5.14-.17,6.35-3.9,3.3-7.85,6.54-11.73,9.87-4.12,3.54-8.17,7.15-12.26,10.73s-8.42,7.34-12.62,11c-3.73,3.25-7.45,6.51-11.2,9.75-2.53,2.2-5.11,4.34-7.64,6.54-3.67,3.19-7.3,6.43-11,9.63s-7.5,6.47-11.24,9.71q-7.95,6.91-15.89,13.84c-1.8,1.57-2.7,1.51-4.51-.09-3.29-2.91-6.66-5.73-10-8.62-3.72-3.24-7.41-6.53-11.14-9.78q-9.93-8.66-19.89-17.29c-4.51-3.93-9-7.89-13.53-11.8q-12.69-11-25.4-21.89c-3.94-3.39-7.88-6.77-11.77-10.2-2.55-2.25-2.46-7.42.09-9.62q7.8-6.72,15.59-13.47,11.39-9.88,22.77-19.81A8.89,8.89,0,0,1,42,122.57c1.24-.63,2.3-.1,2.38,1.3.17,3.21.2,6.29-2.78,8.67-4.31,3.44-8.36,7.18-12.52,10.78-2.36,2-4.75,4-7.09,6.08-3.79,3.32-7.54,6.67-11.31,10a9.73,9.73,0,0,0-1,1c-1.06,1.25-1.11,2.31.08,3.35,4.22,3.67,8.49,7.26,12.74,10.89.37.31.76.59,1.11.91q11.33,10,22.63,20T69,215.38c5.13,4.44,10.33,8.8,15.49,13.21,3.28,2.79,6.53,5.63,9.84,8.39,1.45,1.22,1.87,1.2,3.3,0q7.75-6.6,15.45-13.26,9.42-8.15,18.79-16.34c3.42-3,6.76-6.1,10.2-9.07,5-4.34,10.09-8.6,15.12-12.9q3.82-3.27,7.61-6.58,8.4-7.34,16.78-14.67c1.86-1.63,1.89-2.57,0-4.3-2.78-2.51-5.66-4.93-8.49-7.39l-22.76-19.82a5.19,5.19,0,0,0-1.33-1c-2.31-1-3.06,0-3.05,2,.09,12,.06,24,.07,36,0,5.52,0,11,0,16.55a5.58,5.58,0,0,1-2.34,5.16c-1.55,1.11-2.88,2.53-4.39,3.7-1.22.95-2.09.56-2.36-.94a7.62,7.62,0,0,1-.07-1.43V154.22Z"/><path class="cls-1" d="M195.27,222.19a22,22,0,0,0,1.11-2c1.06-2.58,2-5.21,3.14-7.77a5,5,0,0,0,.09-4.38c-.56-1.23-1-2.52-1.5-3.79a5.59,5.59,0,0,0-3.14-3.42c-.66-.26-1.59-.6-1.13-1.46.23-.44,1.21-.66,1.85-.67,3.52,0,7,.06,10.55.08,1,0,2.09-.17,3.11-.09.46,0,.87.5,1.3.78-.31.39-.54.93-1,1.16-2.17,1.25-2.29,1.33-1.42,3.75,1.9,5.26,3.88,10.49,5.84,15.72a5.49,5.49,0,0,0,.79,1c.78-1.93,1.51-3.57,2.11-5.26q2-5.64,3.95-11.31c.74-2.18.64-2.37-1.3-3.71a4.34,4.34,0,0,1-.77-.56c-.61-.65-.35-1.52.55-1.54,2.39-.08,4.79,0,7.18,0a1.51,1.51,0,0,1,1,.81,1.11,1.11,0,0,1-.42,1c-2.39,1.28-2.81,3.74-3.65,6q-4.69,12.45-9.4,24.89c-.42,1.12-.8,2.26-1.23,3.38-.3.76-.71,1.64-1.66,1.38a2.54,2.54,0,0,1-1.37-1.43c-2-5.14-3.91-10.31-5.85-15.47l-1.85-4.91a12.73,12.73,0,0,0-1.2,1.71q-3.76,9.07-7.5,18.16a2.62,2.62,0,0,1-.4.86c-.44.41-1,1-1.42,1a2,2,0,0,1-1.31-1.15c-1-2.35-1.92-4.74-2.88-7.12q-4.59-11.44-9.22-22.91a8.24,8.24,0,0,0-3-4.26c-.36-.23-.43-.9-.64-1.37a4.5,4.5,0,0,1,1.47-.58c2.8,0,5.6,0,8.4,0,1.36,0,2.72-.13,4.07-.06a2.12,2.12,0,0,1,1.31.75c.1.11-.29.84-.6,1.1-1.9,1.6-2,1.65-1.16,4,1.4,3.83,2.93,7.6,4.41,11.4.49,1.26,1,2.53,1.51,3.78C194.37,220.42,194.73,221.08,195.27,222.19Z"/><path class="cls-1" d="M549.13,213.67A33.13,33.13,0,0,0,557,223.88c1.65-1.73,3-3.57,3.16-6.11a2.44,2.44,0,0,0-1.15-2.21c-.5-.38-1.14-1.13-1.06-1.62.15-1,1.21-.81,2-.82,2.24,0,4.48,0,6.71,0,.71,0,1.64-.08,1.7.86a1.84,1.84,0,0,1-1,1.41c-1.75.76-2.66,2.21-3.58,3.73-1.45,2.38-3,4.72-4.53,7.22A10.6,10.6,0,0,0,564,230a4,4,0,0,0,2.26-.22c.42-.12.76-.57,1.1-.9.58-.57,1.22-1.28,2-.53s.16,1.51-.28,2.16a34.42,34.42,0,0,1-2.3,3.06A8,8,0,0,1,556,235.14a23.69,23.69,0,0,1-2.45-1.91c-1.29-1.07-1.58-1.15-2.91-.17a17.81,17.81,0,0,1-12,3.43,10.43,10.43,0,0,1-9.68-7.35c-1-2.9-.22-5.68,1.51-8.17a16.7,16.7,0,0,1,5.58-4.82c.63-.36,1.28-.66,1.9-1,1.43-.83,1.49-1.13,1.09-2.71a26.88,26.88,0,0,1-.72-4c-.59-6,6-11.17,11.13-10.56,2.64.31,5,.74,6.84,2.88a5.88,5.88,0,0,1,.38,7.51,11.75,11.75,0,0,1-4.76,3.9C551,212.63,550.14,213.14,549.13,213.67Zm.31,16.14c-.09-.36-.07-.64-.2-.8a60,60,0,0,1-8-11c-.48-.92-1.22-.9-2-.34a4.64,4.64,0,0,0-2,4.78,10.38,10.38,0,0,0,6,8.07C545.54,231.71,547.47,231.05,549.44,229.81Zm-2-18.92a4,4,0,0,0,3.72-3.35,7.1,7.1,0,0,0-.86-5.06c-.63-1.08-1.46-1.95-2.83-1.8-1.19.12-2.12,1.47-2.19,3C545.18,206.36,546.29,208.6,547.46,210.89Z"/><path class="cls-1" d="M329.61,212a4.32,4.32,0,0,0,1-.53c3.2-3.15,8.76-2.54,12,2.07,3.75,5.27,3.77,13.77-.06,19-2.79,3.81-5.39,4.35-9.64,3.76-1.1-.15-2.11-1-3.38-1.62a8.24,8.24,0,0,0-.35,1.64c0,2,.05,4,0,6a2.69,2.69,0,0,0,1.81,3,5.72,5.72,0,0,1,1.25.81c-.27,1.17-1.05,1.09-1.75,1.09-3.52,0-7,0-10.55-.07-.52,0-1-.48-1.55-.75.29-.43.48-1,.89-1.26,1.23-.61,1.37-1.62,1.37-2.8q0-13.19,0-26.36c0-1.52-.16-2.85-1.69-3.66-.33-.18-.45-.74-.87-1.46a20.06,20.06,0,0,1,2.25-.35c1.68,0,3.36,0,5,0S328.61,210.4,329.61,212Zm-.38,11.6h0c0,1.84-.06,3.68,0,5.51a4.43,4.43,0,0,0,.57,2.25c.92,1.33,2.13,2.62,3.92,2.3s2.21-2,2.36-3.51a76.4,76.4,0,0,0,.58-9.06,18.91,18.91,0,0,0-1.23-6.06c-.82-2.23-2.9-2.5-4.58-.8a5.2,5.2,0,0,0-1.64,3.86C329.25,219.94,329.23,221.78,329.23,223.62Z"/><path class="cls-1" d="M491,238c-3.28-4.29-2.79-6.79,2.62-10.74-.61-.44-1.14-.85-1.69-1.22a8.36,8.36,0,0,1-.53-13.83A12,12,0,0,1,502,209.89a28.71,28.71,0,0,0,6.64.65c.64,0,1.28,0,1.91,0,1.71.07,2.39.56,2.37,1.71s-.6,1.52-2.14,1.73c-.45.06-.91.15-1.52.26a5,5,0,0,0,.33,1.41c2.44,3.93-.05,9.31-4.11,11.27a12.58,12.58,0,0,1-6.93,1.47,8.23,8.23,0,0,0-1.92.05,1.93,1.93,0,0,0-1.77,1.94,1.76,1.76,0,0,0,1.91,1.73c2,.08,4,0,6,0a25.35,25.35,0,0,1,4.54.3c5,1,7.22,6,4.6,10.1a9,9,0,0,1-5.36,3.81,26.93,26.93,0,0,1-13.52.13,10.21,10.21,0,0,1-3.06-1.35c-2.4-1.58-2.53-4.12-.38-6C490,238.75,490.44,238.41,491,238Zm11.54-19,.29,0a41.71,41.71,0,0,0-.9-4.89,2.42,2.42,0,0,0-2.32-1.79,2.88,2.88,0,0,0-2.49,2,2.93,2.93,0,0,0-.33,1.14c0,2.38-.08,4.77,0,7.15a3.92,3.92,0,0,0,.62,1.78c1.09,1.88,3,2,4.23.19a5.91,5.91,0,0,0,.9-2.42A21.36,21.36,0,0,0,502.53,219Zm-2.22,20,0,.33a40.05,40.05,0,0,0-4.52,0,2.33,2.33,0,0,0-2.24,2.12,2.46,2.46,0,0,0,1.75,2.34,14.23,14.23,0,0,0,10.91-.41,3,3,0,0,0,1.44-2c.18-1-.82-1.51-1.69-1.67C504.07,239.44,502.19,239.25,500.31,239Z"/><path class="cls-1" d="M778.58,214.15c.42,2.17,1.07,3.94,1,5.69a7.68,7.68,0,0,1-4,6.46,11.57,11.57,0,0,1-7,2.12,13.67,13.67,0,0,0-2.86,0,2,2,0,0,0-1.69,2,1.76,1.76,0,0,0,1.78,1.64c2.07.07,4.15,0,6.23.05a28.32,28.32,0,0,1,4.52.37,6.45,6.45,0,0,1,5.21,4.44,6.58,6.58,0,0,1-1.82,6.83,10.85,10.85,0,0,1-6.83,3.16,28,28,0,0,1-10.48-.34,11.49,11.49,0,0,1-3.88-1.77c-2.2-1.59-2.16-3.86-.11-5.64.41-.36.86-.69,1.5-1.2-1.18-1.78-2.69-3.47-1.92-5.83.71-2.18,2.49-3.41,4.32-4.81a9.92,9.92,0,0,0-1.11-1c-3.13-2-4.78-4.76-4.3-8.45s2.82-5.81,5.93-7.3a11.9,11.9,0,0,1,8.21-.66,25.75,25.75,0,0,0,6.4.63c.88,0,1.76,0,2.64.05s1.71.48,1.72,1.59a1.63,1.63,0,0,1-1.59,1.76C779.82,214,779.13,214.09,778.58,214.15Zm-6.76,4.23a38.5,38.5,0,0,0-.74-4.17,2.44,2.44,0,0,0-2.17-2c-1.29-.08-2,.84-2.63,1.8a2.24,2.24,0,0,0-.35,1.12c-.07,2.47-.18,4.94-.07,7.4a4.29,4.29,0,0,0,1.08,2.32,2.09,2.09,0,0,0,3.49,0,5.55,5.55,0,0,0,1.08-2.35A34.7,34.7,0,0,0,771.82,218.38Zm-2.41,20.56,0,.24c-.88,0-1.76,0-2.63,0a6.15,6.15,0,0,0-2.34.36,3.71,3.71,0,0,0-1.72,1.76c-.36,1,.51,1.76,1.35,2.29a5.41,5.41,0,0,0,1.11.46,13.93,13.93,0,0,0,7.33.29,10.21,10.21,0,0,0,3.13-1.09,2.93,2.93,0,0,0,1.2-1.88c.15-.93-.72-1.42-1.52-1.56C773.33,239.47,771.36,239.23,769.41,238.94Z"/><path class="cls-1" d="M601.8,198.76c4.15,0,8.3,0,12.46,0,2.69,0,3,.4,3.08,3l.12,5.27c0,.9,0,1.91-1.14,2-1,.1-1.3-.81-1.41-1.61a5.9,5.9,0,0,0-3.69-4.95,17.65,17.65,0,0,0-4.4-1c-1.33-.17-2.71,0-4.07-.08-1.15,0-1.85.42-1.86,1.64,0,3.76,0,7.51,0,11.26,0,1.27.57,1.65,1.87,1.51a6.25,6.25,0,0,0,5.22-4.66,17.69,17.69,0,0,1,.66-2.29,1.13,1.13,0,0,1,.92-.56,1.81,1.81,0,0,1,1,.81,2.47,2.47,0,0,1,.1,1.17l0,13.88a2.82,2.82,0,0,1-.13,1.17c-.15.32-.54.73-.82.73a1.47,1.47,0,0,1-1.13-.6,11.79,11.79,0,0,1-.65-2.29,6.11,6.11,0,0,0-5.45-4.65c-1.12-.08-1.65.31-1.66,1.5,0,3.59,0,7.18.11,10.77,0,1.69.75,2.41,2.37,2.87.38.11.86.05,1.15.26a1.83,1.83,0,0,1,.7,1.08c0,.23-.45.67-.77.75a7,7,0,0,1-1.66.06l-13.64,0c-.24,0-.47,0-.71,0-.73,0-1.57,0-1.68-.92s.69-1.16,1.44-1.21c2.35-.16,3-1.8,3-3.83,0-8.54,0-17.09,0-25.63,0-2.37-.47-2.91-2.68-3.62a6,6,0,0,1-1.14-.34c-.24-.14-.56-.5-.52-.7a1.28,1.28,0,0,1,.62-.87,5,5,0,0,1,1.65-.17h12.69Z"/><path class="cls-1" d="M458.35,210.77c1.11-.11,1.8-.23,2.49-.24,1.67,0,3.35,0,5,0s3.19-.25,3.55,2.1a18.21,18.21,0,0,0,1.66-1.1c2.25-2,4.87-2.64,7.57-1.5,2.9,1.23,4.25,3.76,4.3,6.91.05,3.83,0,7.66.05,11.49,0,2.07-.24,4.15,1.81,5.63.69.51.32,1.42-.58,1.56a15.41,15.41,0,0,1-2.15,0c-2.48,0-4.95.06-7.43,0A2.16,2.16,0,0,1,473,235c-.19-.31.17-1.19.54-1.57a4.12,4.12,0,0,0,1-3.08c0-4.31,0-8.62,0-12.93,0-1.29.05-2.78-1.47-3.21s-2.3.94-2.89,2a7.39,7.39,0,0,0-.95,3.14c-.11,3.59,0,7.19,0,10.78a5.6,5.6,0,0,0,1.15,3.56c.87,1.14.57,1.91-.73,1.94-3.27.09-6.54.06-9.82,0a1.49,1.49,0,0,1-1.07-.72,1.08,1.08,0,0,1,.35-1c1.8-1.13,1.73-2.89,1.72-4.67,0-4.23,0-8.46,0-12.69,0-1.76-.07-3.36-1.82-4.36C458.8,212,458.73,211.55,458.35,210.77Z"/><path class="cls-1" d="M727.52,210.91a19.4,19.4,0,0,1,2.42-.38c1.76,0,3.52,0,5.28,0,1.5,0,3-.06,3.31,2.1a11.79,11.79,0,0,0,1.66-1,6.85,6.85,0,0,1,7.77-1.47c2.93,1.27,4.16,3.82,4.17,7,0,4.23,0,8.47,0,12.7,0,1.56,0,3,1.6,4a1.27,1.27,0,0,1,.41,1.19,1.42,1.42,0,0,1-1.12.65c-3.28.05-6.56.07-9.83,0-1.27,0-1.73-1.09-.8-1.95,1.3-1.2,1.36-2.61,1.35-4.15,0-4,0-8,0-12a6.64,6.64,0,0,0-.47-2.55,1.42,1.42,0,0,0-2.39-.49,6.35,6.35,0,0,0-2.55,4.7c0,3.76-.1,7.52,0,11.27a8.72,8.72,0,0,0,1.28,3.24c.61,1.21.38,1.89-1,1.92-3.19.08-6.39.07-9.59,0a1.45,1.45,0,0,1-1.13-.62,1.34,1.34,0,0,1,.42-1.21c1.53-1.09,1.62-2.62,1.6-4.27,0-4.4,0-8.8,0-13.19,0-1.69-.18-3.17-1.79-4.14C728,212.07,727.87,211.59,727.52,210.91Z"/><path class="cls-1" d="M434.2,235.56l-6.13.27a2.27,2.27,0,0,1-.94,0c-.33-.14-.74-.42-.82-.72a1.1,1.1,0,0,1,.41-1c2.9-1,2.69-3.44,2.67-5.76-.05-4.07-.16-8.14-.2-12.2,0-1.74,0-1.81-1.75-2.13-1-.18-1.61-.62-1.64-1.67a1.56,1.56,0,0,1,1.5-1.77c1.81-.34,1.87-.42,1.84-2.32a9.77,9.77,0,0,1,3-7.54,11.34,11.34,0,0,1,11.85-2,2.72,2.72,0,0,0,3-.11,5,5,0,0,1,2.73-.58,4,4,0,0,1,3.93,4,4.1,4.1,0,0,1-4,3.73,2.11,2.11,0,0,1-.71,0,10.34,10.34,0,0,0-5.76-.08c-2.3.53-3.67-.94-3.72-3.4,0-.66.07-1.47-.78-1.41a1.73,1.73,0,0,0-1.16,1.23q-.21,3.7-.07,7.4c0,.36.86.92,1.37,1,1.16.15,2.07.44,2.07,1.79s-.85,1.63-1.91,1.68c-1.35.06-1.73.78-1.7,2.05.15,4.87.24,9.73.33,14.6a3.15,3.15,0,0,0,2,3.24c.38.16.56.82.83,1.24-.46.24-.91.69-1.36.69C437.49,235.8,435.89,235.65,434.2,235.56Z"/><path class="cls-1" d="M250.8,233.1c-1.79,2-3.49,3.4-6,3.42s-4.22-1.19-5.13-3.77a17.14,17.14,0,0,1-1.76,1.25,20.92,20.92,0,0,1-4.67,2.31,5.28,5.28,0,0,1-6.28-3.26c-1.1-3,.66-6,2.92-7.82,2.65-2.16,8.42-3.13,9.59-6.69,1-2.91-1.44-8.62-5-5.55a2.39,2.39,0,0,0-.42,1.64c0,.33.42.66.62,1,1.09,1.88.86,3.21-.78,4.64a3.67,3.67,0,0,1-4.83.22c-2.37-1.78-2.63-4.26-.65-6.66a11.68,11.68,0,0,1,6-3.73c3-.82,6.19-1,9.12.49,2.66,1.37,4.37,3.44,4.37,6.62,0,3.67,0,7.35,0,11,0,.48,0,1,0,1.44-.05,1.23.23,2.21,1.61,2.56A6.22,6.22,0,0,1,250.8,233.1Zm-11.44-10a9.48,9.48,0,0,0-4.26,4.39,4.52,4.52,0,0,0-.21,2.77,2.69,2.69,0,0,0,1.51,1.62c.42.14,1.27-.46,1.7-.93C240.11,228.7,239.53,226.08,239.36,223.05Z"/><path class="cls-1" d="M372,223.09a14.12,14.12,0,0,1,3.53-9.81c4.2-4.94,11.38-4.66,15.74-1.07a11.58,11.58,0,0,1,4,6.09c1.53,5.89.7,11.16-3.89,15.6-3.64,3.51-12.07,3.76-15.78-.89C373.17,230,371.76,226.8,372,223.09Zm8.4.14h.28a52.12,52.12,0,0,0,.05,5.73,9.75,9.75,0,0,0,1.28,3.78,2.13,2.13,0,0,0,3.76.06,6.21,6.21,0,0,0,1.13-3.07c.18-4.29.17-8.58.21-12.88a6.21,6.21,0,0,0-.24-1.41c-.43-1.92-1.48-3.12-2.76-3.2-1.43-.09-2.62,1-3,3.16C380.69,218,380.59,220.62,380.35,223.23Z"/><path class="cls-1" d="M661.72,223.14A13.52,13.52,0,0,1,666,212.61a11.13,11.13,0,0,1,13.69-1.35,12.09,12.09,0,0,1,5.84,9.4c.51,4.71-.29,9-3.67,12.64-4.37,4.74-13.45,3.93-16.66-.52C663.07,229.81,661.53,226.85,661.72,223.14Zm15.42-.46H677c0-1.67.08-3.35,0-5a13.91,13.91,0,0,0-.73-3.49,2.55,2.55,0,0,0-2.49-1.9,2.68,2.68,0,0,0-2.52,1.9,10.25,10.25,0,0,0-.71,3.26c-.08,3.9-.13,7.81,0,11.71a7.71,7.71,0,0,0,1.2,3.56,2.18,2.18,0,0,0,3.91,0,6.8,6.8,0,0,0,1-2.88C676.93,227.46,677,225.06,677.14,222.68Z"/><path class="cls-1" d="M423.2,223.41a43.5,43.5,0,0,1-1.49,5.71c-3.12,7.62-12.76,10.07-18.33,4.68a15.2,15.2,0,0,1-.7-20.76c5.13-5.63,14.2-4.11,18,1.88A16.52,16.52,0,0,1,423.2,223.41Zm-9.08-.52h.06c0-1.67.08-3.35,0-5a15.47,15.47,0,0,0-.62-3.51,2.77,2.77,0,0,0-2.58-2.14,2.94,2.94,0,0,0-2.57,2.18,10.09,10.09,0,0,0-.6,2.8c-.09,4-.14,8,0,11.94a8.91,8.91,0,0,0,1,3.16,2.33,2.33,0,0,0,2.22,1.56,2.46,2.46,0,0,0,2.34-1.76,17.93,17.93,0,0,0,.83-3.95C414.23,226.41,414.12,224.64,414.12,222.89Z"/><path class="cls-1" d="M634.73,222.67a13.21,13.21,0,0,1,3.29-9.08c4.86-5.88,13.2-5.15,17.76.34,4.28,5.16,4.34,15.42-2.22,20.5-4,3.09-10.76,2.91-14.38-.62A13.82,13.82,0,0,1,634.73,222.67Zm15.48.19H650c0-1.75.09-3.51,0-5.26a13,13,0,0,0-.72-3.49,2.47,2.47,0,0,0-2.53-1.83,2.8,2.8,0,0,0-2.51,1.94,7,7,0,0,0-.59,2.31c-.09,4.3-.19,8.6-.11,12.9a6.49,6.49,0,0,0,1.12,3.11c1.16,1.85,3.13,1.82,4.2-.06a7.78,7.78,0,0,0,.92-2.93C650,227.32,650.07,225.09,650.21,222.86Z"/><path class="cls-1" d="M285.54,222.12H281c-.92,0-1.64.33-1.57,1.36.22,3,1.09,5.67,3.56,7.57,2.07,1.6,3.86,1.46,5.77-.4.63-.61,1.05-1.44,1.7-2a1.76,1.76,0,0,1,1.45-.27c.25.08.35.79.43,1.24a1.13,1.13,0,0,1-.23.67c-2.47,3.82-5.56,6.48-10.54,6.25-4.6-.21-7.46-2.69-9.14-6.62a15.29,15.29,0,0,1,1.45-15.51,10.31,10.31,0,0,1,10.58-4.69c3.64.58,6.9,4.06,7.81,8.22.83,3.76.5,4.17-3.36,4.16h-3.35Zm-3.3-2.62a7.5,7.5,0,0,0,1.9,0c.46-.13,1.17-.64,1.15-.94-.12-1.88,0-3.87-1.33-5.44a1.87,1.87,0,0,0-2.93-.24,4.9,4.9,0,0,0-1.59,3.11C278.73,219.43,278.7,219.43,282.24,219.5Z"/><path class="cls-1" d="M629.82,216.16c0,4.55,0,9.11,0,13.66,0,1.57.14,3,1.68,4a1.46,1.46,0,0,1,.47,1.38c-.17.35-.9.57-1.39.57-3.2,0-6.39,0-9.58,0a4.25,4.25,0,0,1-1-.09c-.89-.24-1.22-1.12-.47-1.58,2.16-1.31,1.87-3.33,1.87-5.31,0-7.91,0-15.82,0-23.72,0-1.73,0-3.36-1.7-4.46a1.32,1.32,0,0,1-.4-1.22,1.47,1.47,0,0,1,1.15-.61c2.31,0,4.63,0,7,.07,1.92.07,2.33.51,2.35,2.52,0,4.95,0,9.9,0,14.85Z"/><path class="cls-1" d="M255.21,222.74c0-2.16-.05-4.32,0-6.47,0-1.26-.06-2.21-1.67-2.28a1.51,1.51,0,0,1-1.16-.86,1.94,1.94,0,0,1,.66-1.4c1.39-1.31,3-2.44,4.28-3.82s2.4-3,3.57-4.46c.25-.31.37-.76.67-1a1.77,1.77,0,0,1,1.26-.4c.34.11.64.65.76,1.06a5.23,5.23,0,0,1,0,1.43c0,1.27,0,2.55,0,3.83,0,2,.23,2.14,2.25,2.16.72,0,1.44,0,2.15.05.88.08,1.54.5,1.56,1.48a1.64,1.64,0,0,1-1.52,1.83c-.86.12-1.75,0-2.62.07-1.48.07-1.84.39-1.84,1.87,0,4.47,0,8.94,0,13.41a4.69,4.69,0,0,0,.13,1.18c.46,1.69,1.46,2,2.71.75.34-.33.61-.8,1-1a1.47,1.47,0,0,1,1.28,0,1.45,1.45,0,0,1,.29,1.26c-.8,2.93-4.6,5.31-7.91,5s-5.52-2.73-5.75-6.31c-.16-2.46,0-4.94,0-7.41Z"/><path class="cls-1" d="M306.83,213.73l1.81-1.74a7,7,0,0,1,5.06-2.36,3.8,3.8,0,0,1,3.65,3.18c.33,1.76-.56,3.93-2.08,4.43a6.23,6.23,0,0,1-2.74-.09c-.34-.05-.63-.46-.93-.72-2-1.81-3.13-1.6-4,1a19,19,0,0,0-.89,4.91c-.15,2.55,0,5.11-.08,7.67,0,1.51.18,2.83,1.63,3.72a1.72,1.72,0,0,1,.55,1.36c0,.23-.74.58-1.15.58-3.51,0-7,0-10.54,0A1.44,1.44,0,0,1,296,235a1.3,1.3,0,0,1,.44-1.19c1.66-1,1.67-2.58,1.66-4.21,0-4.56,0-9.11,0-13.66,0-1.51-.07-2.86-1.66-3.65a1.26,1.26,0,0,1-.51-1.13,1.48,1.48,0,0,1,1.14-.63c2.47-.05,4.95,0,7.42,0,1.23,0,2,.56,2,1.88A5.94,5.94,0,0,0,306.83,213.73Z"/><path class="cls-1" d="M348.53,211a17.66,17.66,0,0,1,2.45-.44c1.68-.05,3.36,0,5,0,3.15,0,3.15,0,3.92,3.25.72-.71,1.29-1.31,1.89-1.87a6.75,6.75,0,0,1,5.08-2.3,3.72,3.72,0,0,1,3.53,3,4.22,4.22,0,0,1-2.14,4.65,3.16,3.16,0,0,1-3.55-.68c-.57-.54-1.12-1.09-1.71-1.68a4.6,4.6,0,0,0-2.79,3.49,23.41,23.41,0,0,0-.59,4.49c-.1,2.4,0,4.79-.05,7.19,0,1.51.2,2.85,1.74,3.66.33.17.72.92.61,1.1a1.83,1.83,0,0,1-1.25.82c-3.51.06-7,.08-10.54,0-1.18,0-1.61-1.08-.69-1.75,1.79-1.31,1.75-3.09,1.75-4.94,0-4.31-.06-8.63,0-12.94,0-1.64-.25-3-1.84-3.82C349.11,212.07,349,211.62,348.53,211Z"/><path class="cls-1" d="M689.13,235.15c.25-.54.31-1,.58-1.2,1.65-1.18,1.82-2.85,1.79-4.68-.06-4.23-.08-8.47,0-12.7,0-1.86-.07-3.52-2-4.46-.23-.11-.31-.51-.66-1.12a16.64,16.64,0,0,1,2.38-.46c1.75-.05,3.51,0,5.27,0,2.79,0,2.81,0,3.63,2.77,1.08.18,1.43-.79,2-1.37a6.52,6.52,0,0,1,5.06-2.31,3.91,3.91,0,0,1,3.58,3.55,4.19,4.19,0,0,1-2.46,4.26,3.1,3.1,0,0,1-3.13-.69c-.64-.57-1.26-1.16-1.93-1.77a4.64,4.64,0,0,0-2.67,3.33,19.7,19.7,0,0,0-.66,4.24c-.11,2.55,0,5.11-.06,7.66,0,1.45.23,2.67,1.64,3.45.41.23.59.84.88,1.27-.52.27-1,.76-1.55.77-3.36.06-6.71,0-10.07,0A6.46,6.46,0,0,1,689.13,235.15Z"/><path class="cls-1" d="M442.36,210.75c1.17-.11,1.87-.21,2.56-.22,1.83,0,3.67,0,5.5,0,2.78,0,3.06.3,3.06,3q0,7.78,0,15.55c0,.56,0,1.12,0,1.68a3.1,3.1,0,0,0,1.39,2.86c.44.3.61,1,.9,1.5a5.27,5.27,0,0,1-1.62.61c-3.1.05-6.21,0-9.32,0a2.74,2.74,0,0,1-.95,0,2.23,2.23,0,0,1-1.07-.76,1.14,1.14,0,0,1,.38-1c1.92-1,1.84-2.8,1.83-4.58,0-4.39,0-8.77,0-13.16,0-1.59-.11-3-1.75-3.86C442.93,212.15,442.81,211.58,442.36,210.75Z"/><path class="cls-1" d="M711.84,210.92a8.78,8.78,0,0,1,1.73-.38c2.23,0,4.47,0,6.71,0,2,.05,2.36.47,2.37,2.46q0,8.16,0,16.3c0,1.79,0,3.47,1.69,4.69.84.59.46,1.46-.59,1.66a4.29,4.29,0,0,1-.72,0c-3.19,0-6.39,0-9.59,0a4.6,4.6,0,0,1-1.45-.57c.2-.46.28-1.12.64-1.35a3.59,3.59,0,0,0,1.48-3.34c0-5,0-10.07,0-15.1a2.92,2.92,0,0,0-1.38-2.85l-1.22-.71Z"/><path class="cls-1" d="M718.34,205.77c-2.49,0-4.4-1.67-4.4-3.8a4.28,4.28,0,0,1,4.54-4c2.47,0,4.52,1.94,4.42,4.09S720.75,205.8,718.34,205.77Z"/></g></g></svg>